<svg preserveAspectRatio="xMidYMid meet" width="335.77" height="273.988" overflow="visible" style="display: block;" viewBox="0 0 335.77 273.988" fill="none" xmlns="http://www.w3.org/2000/svg">
<g id="_&#227;&#131;&#172;&#227;&#130;&#164;&#227;&#131;&#164;&#227;&#131;&#188;_1" clip-path="url(#clip0_0_4)">
<path id="Vector" d="M264.46 11.1447C264.24 11.1447 262.98 11.3547 262.98 11.3547C262.98 11.3547 262.82 11.965 262.55 12.1651C262.27 12.3752 262.17 12.2751 262.01 12.9454C261.84 13.5757 262.27 15.2764 262.27 15.2764C262.27 15.2764 263.69 16.0568 264.29 15.2764C264.9 14.5361 264.96 14.3861 265.29 13.8958C265.61 13.4356 265 13.5357 265.99 13.1855C266.99 12.8654 266.86 13.1555 267.46 12.7654C268.06 12.3752 266.91 12.2351 268.45 12.3352C269.97 12.4452 270.81 12.2651 270.74 12.5853C270.69 12.9354 270.13 13.1555 270.69 13.1555C271.25 13.1555 271.67 13.0455 271.67 13.0455C271.67 13.0455 272.34 12.9454 272.66 13.5757C272.98 14.246 272.55 13.1555 273.15 14.4661C273.75 15.7767 273.8 16.2669 273.75 16.597C273.69 16.9171 273.86 17.3673 273.43 17.5874C272.97 17.7975 272.5 17.9076 272.44 18.2177C272.37 18.5779 272.37 18.828 272.71 18.928C273.05 19.0281 273.64 18.998 273.64 19.3882C273.64 19.7784 273.85 20.1385 273.64 20.3086C273.43 20.4887 272.75 20.0985 272.65 20.6988C272.54 21.299 272.36 21.189 272.71 21.5492C273.05 21.9393 273.47 22.1194 273.68 22.0394C273.91 21.9993 274.14 22.6396 274.41 21.7192C274.67 20.7988 275.1 18.778 275.17 18.5679C275.23 18.3578 275.17 18.4678 275.82 17.7875C276.48 17.1472 276.48 16.9672 276.76 16.4069C277.02 15.8767 277.47 15.1664 277.47 15.1664C277.47 15.1664 277.63 14.6362 278.18 14.6362C278.73 14.6362 279.42 14.3861 279.7 14.146C279.98 13.8558 280.02 13.4757 280.35 13.4356C280.69 13.3656 279.64 12.6853 281.39 13.3256C283.13 13.8958 283.68 13.8958 283.68 14.286C283.68 14.6762 284.23 14.6762 283.62 15.0964C283.02 15.5666 282.71 15.6666 282.31 15.7667C281.92 15.8767 280.4 15.5566 281.88 16.0868C283.35 16.657 284.22 16.8671 284.4 16.8671C284.54 16.8671 284.43 16.3769 284.54 16.8671C284.66 17.3573 284.66 17.6175 284.93 18.1777C285.21 18.7079 285.31 20.0885 285.71 19.0281C286.08 17.9976 285.81 17.1472 285.96 16.7971C286.14 16.477 287.05 16.2969 287.23 15.5966C287.39 14.8863 287.01 13.6858 286.84 13.4356C286.67 13.1555 286.56 13.0455 286.67 12.5553C286.79 12.055 287.23 11.845 287.39 10.9546C287.55 10.0642 287.5 9.22383 287.55 8.72361C287.61 8.2334 288.26 6.27255 288.26 5.57225C288.26 4.87195 287.88 4.52179 287.66 4.37173C287.45 4.19165 287.13 3.91153 287.13 3.59139C287.13 3.59139 286.84 2.9211 287.23 2.60096C287.6 2.28083 287.71 1.9907 287.71 1.9907C287.71 1.67056 287.66 0.289967 287.17 0.370001C286.68 0.430027 286.19 0.430027 285.82 0.430027C285.45 0.430027 285.48 0.329984 284.89 0.430027C284.28 0.540075 283.95 0.680135 283.53 0.920239C283.08 1.13033 282.92 1.0703 282.54 1.45047C282.17 1.84064 281.72 2.27082 281.54 2.37087C281.4 2.47091 282.21 2.65099 281.18 2.65099C280.15 2.65099 279.31 2.59096 278.71 2.59096H277.37C277.37 2.59096 276.76 2.4509 276.48 2.48091C276.19 2.56095 275.38 2.9111 275.1 3.1512C274.85 3.36129 274.02 3.68143 273.68 4.01157C273.36 4.36173 272.93 5.002 272.93 5.002C272.93 5.002 272.38 5.21209 271.94 5.38217C271.5 5.56224 271.17 5.4522 271.02 5.71231C270.84 5.99243 270.52 6.31257 270.52 6.31257C270.52 6.31257 269.6 6.74275 269.26 6.88281C268.92 6.98286 268.11 7.12292 267.58 7.12292C267.01 7.12292 266.81 7.41304 266.49 7.12292C266.15 6.88281 265.71 6.49265 265.71 6.49265C265.71 6.49265 265.45 5.60226 265 6.28256C264.58 6.92283 264.19 7.95328 264.19 7.95328C264.19 7.95328 264.25 8.72361 264.4 8.9437C264.58 9.1538 265.44 10.0042 265.44 10.0042C265.44 10.0042 265.88 11.0646 264.46 11.1347V11.1447Z" stroke="var(--stroke-0, #251E1C)" stroke-width="0.75"/>
<path id="Vector_2" d="M216.27 25.1709C216.27 25.1709 215.95 26.2013 215.24 26.2013C214.57 26.2013 213.77 25.0708 213.66 25.7411C213.54 26.4114 213.89 28.0021 213.89 28.0021C213.89 28.0021 214.56 29.0425 215.48 28.4723C216.38 27.9021 217.75 26.9817 217.75 26.9817C217.75 26.9817 218.44 24.0404 216.27 25.1809V25.1709Z" stroke="var(--stroke-0, #251E1C)" stroke-width="0.75"/>
<path id="Vector_3" d="M209.22 25.1709C209.22 25.1709 210.35 27.5419 209.89 28.4623C209.42 29.3727 208.99 29.8429 208.65 30.063C208.29 30.2731 208.19 30.6232 207.96 31.1935C207.73 31.7637 208.4 32.5741 206.93 32.0038C205.44 31.4436 205 30.6232 205.57 29.4927C206.13 28.3522 206.81 27.4419 207.27 26.8716C207.73 26.3014 209.22 24.1404 209.22 25.1709Z" stroke="var(--stroke-0, #251E1C)" stroke-width="0.75"/>
<path id="Vector_4" d="M204.72 82.0254H204.29L202.81 80.8249L201.85 80.0846C201.85 80.0846 199.4 79.5844 198.67 79.5844C197.94 79.5844 196.47 79.5844 195 79.3443L194.99 79.2742C194.58 79.1942 194.2 78.9141 193.88 78.5639C194.6 77.9937 195.54 77.3234 196.11 77.2834C197.13 77.1833 198.36 76.6831 198.46 76.0528C198.56 75.4426 199.38 72.4013 199.38 72.4013L199.89 68.2895C199.89 68.2895 199.07 67.3591 199.07 66.9689C199.07 66.5487 198.86 65.9385 199.56 65.0181C200.27 64.1077 200.9 64.1077 200.9 63.3974C200.9 62.6871 200.7 62.477 200.7 61.8767C200.7 61.2765 200.6 61.0564 200.7 60.246C200.79 59.4357 200.9 59.4357 200.9 58.6853C200.9 57.975 201.3 56.7645 200.79 55.9542C200.28 55.1438 200.39 55.2439 200.08 54.4335C199.79 53.6232 199.9 52.9729 199.17 52.4827C198.46 51.9524 198.16 52.0925 197.34 51.6723C196.53 51.2421 195.71 50.962 195.5 50.6419C195.29 50.3217 195.82 49.6114 194.99 49.4013C194.18 49.2213 194.38 49.2213 193.67 49.0112C192.96 48.8111 193.26 49.2313 192.25 48.521C191.23 47.7806 191.44 47.6406 191.44 47.0003C191.44 46.36 191.63 46.7802 191.12 45.8698C190.62 44.9494 189.71 45.1595 190.62 44.9494C191.53 44.7393 190.09 43.929 191.53 44.7393C192.97 45.5497 192.56 45.7598 193.78 46.0799C195 46.37 195.92 46.1599 196.12 46.6902C196.32 47.1804 196.44 47.1804 196.93 47.8907C197.46 48.641 197.34 48.9211 198.17 49.0212C198.98 49.1312 199.68 49.1312 200.5 49.1312C201.32 49.1312 200.92 48.8111 201.83 48.701C202.74 48.641 202.95 48.701 203.66 49.0212C204.39 49.3413 204.28 49.4113 205.2 49.4113C206.12 49.4113 206.74 49.3413 206.74 49.3413C206.74 49.3413 209.08 47.4005 209.58 47.0103C210.1 46.5801 210.82 45.8798 211.03 45.4496C211.21 45.0595 211.03 45.5497 211.21 44.3492C211.43 43.1186 211.04 42.6184 211.53 42.6184C212.02 42.6184 211.74 42.0982 212.02 42.6184C212.35 43.1186 210.82 43.6088 212.35 43.1186C213.87 42.6184 214.79 41.0677 215.3 40.7776C215.81 40.4675 216.03 40.7776 216.42 40.1473L216.84 39.5371C216.84 39.5371 216.95 39.367 218.04 39.1569C219.18 38.9368 219.28 38.5066 219.99 38.0164C220.7 37.5162 221.32 37.2061 221.94 36.5958C222.54 35.9555 222.24 35.5654 222.24 35.5654L222.54 35.0351L223.36 33.6245L224.17 33.3344L224.88 32.524C224.88 32.524 224.98 32.524 224.98 33.0243C224.98 33.5245 224.68 34.0547 224.68 34.0547C224.68 34.0547 224.38 34.5449 224.38 34.8651C224.38 35.1552 222.94 35.0451 224.38 35.1552C225.8 35.2552 226.61 35.0451 227.32 34.9751C228.04 34.8651 227.95 34.9751 228.55 34.765C229.16 34.5449 229.06 34.665 229.59 34.1648C230.08 33.6345 231.11 33.8346 231.21 32.9242C231.3 31.9938 231.4 31.9238 231.3 31.1835C231.21 30.4732 231.21 30.3731 231.21 29.6628C231.21 28.9525 231.21 28.4623 231.3 28.1322C231.4 27.812 233.14 27.812 233.55 27.712C233.96 27.6019 235.28 27.2118 235.28 27.2118L235.39 26.6015L236.81 27.2118L237.62 27.6019L238.33 27.702L238.65 29.0425L239.36 29.2226L240.98 28.8325C240.98 28.8325 242.41 29.6528 242.61 30.073C242.82 30.4632 243.72 31.4936 244.24 31.4936C244.76 31.4936 245.96 31.7037 246.29 31.5936C246.59 31.4936 245.86 31.8838 246.59 31.4936C247.32 31.0634 246.79 30.8533 247.7 31.0634C248.62 31.2735 250.46 31.7037 250.46 31.7037C250.46 31.7037 251.06 31.0634 251.38 31.0634C251.68 31.0634 252.4 30.6833 252.58 31.0634C252.79 31.4936 254.33 31.8838 254.33 31.8838C254.33 31.8838 254.53 31.2735 254.93 31.0634C255.34 30.8533 255.44 28.6224 255.44 28.6224L255.75 27.5219C255.75 27.5219 256.47 27.702 256.78 28.2322C257.08 28.7224 257.79 29.9329 257.79 29.9329L258 30.3631C258 30.3631 258 31.2835 258.51 30.9634C259.03 30.6833 259.13 29.9329 259.13 29.6528L259.03 28.0221C259.03 28.0221 259.74 27.712 259.74 27.3918C259.74 27.1017 259.33 25.8712 259.33 25.8712C259.33 25.8712 258.1 24.9808 259.53 24.9808C260.96 24.9808 262.08 24.4506 262.51 25.481C262.9 26.5014 263.72 26.5014 263.72 27.1017C263.72 27.1017 263.62 27.812 263.52 28.2422C263.41 28.6324 263.52 29.0525 263.41 29.4427C263.32 29.8629 263.21 30.3631 263.52 30.6833C263.82 30.9634 264.63 30.9634 264.63 30.9634C264.63 30.9634 264.03 31.5036 265.87 31.9938C267.69 32.524 268.32 32.7041 268.32 32.7041L268.92 32.314C268.92 32.314 269.03 31.2935 269.33 30.5832C269.63 29.8729 271.17 30.2631 271.17 30.2631C271.17 30.2631 271.36 31.4036 271.68 32.1039C271.99 32.8142 271.48 32.9242 272.39 33.2444C273.31 33.5245 274.02 33.5245 274.02 33.5245C274.02 33.5245 274.44 32.0038 275.05 32.7141C275.65 33.4244 276.57 34.3748 276.57 34.8751C276.57 35.3753 276.98 35.7955 276.57 36.4057C276.16 36.996 275.76 36.996 275.35 37.3161C274.94 37.6363 275.15 36.0756 274.94 37.6363C274.73 39.1669 274.84 39.267 274.94 39.5471C275.05 39.8672 275.85 42.1082 276.16 42.1082C276.47 42.1082 277.5 41.608 277.5 41.608C277.5 41.608 278.32 41.9981 278.53 42.3183C278.73 42.6384 278.1 42.1182 278.73 42.6384C279.34 43.1486 280.35 43.6388 280.35 43.6388C280.35 43.6388 280.97 42.9285 282 43.4588C283.01 43.949 283.82 45.0795 284.23 45.3696C284.63 45.6897 285.45 46.29 286.17 46.4C286.88 46.5001 287.09 46.5001 287.8 46.5001C288.51 46.5001 290.46 45.8998 290.74 45.7898C291.06 45.6897 293.01 47.0303 293.01 47.0303C293.01 47.0303 293.51 47.9207 293.51 48.3409C293.51 48.7411 293.3 49.3713 293.3 49.3713C293.3 49.3713 294.44 48.9511 294.44 49.3713C294.44 49.7615 294.54 50.3718 294.54 50.3718C294.54 50.6919 294.13 50.3718 294.54 50.6919C294.95 51.012 294.01 50.7919 295.76 51.4022C297.48 52.0025 297.58 52.3226 298.29 52.5327L298.33 53.6732L297.13 55.1238V57.1147C297.13 57.1147 297.13 59.0555 296.63 60.266C296.14 61.5066 296.67 60.266 295.18 60.266C293.69 60.266 293.46 59.8058 293.46 59.8058C293.46 59.8058 289.79 58.3252 288.58 57.825C287.36 57.3248 288.58 57.825 287.6 57.3248C286.61 56.8646 286.61 57.5749 286.61 57.5749L284.66 58.0751L283.69 58.3252C283.69 58.3252 282.7 58.5653 281.24 58.5653C279.78 58.5653 280.27 58.3252 280.02 57.5749C279.78 56.8646 278.78 57.5749 277.08 57.5749C275.38 57.5749 273.66 57.3248 272.2 57.825C270.74 58.3252 270.49 57.825 267.8 57.825H266.34C264.85 57.825 265.35 58.3252 263.65 58.5653C261.93 58.8154 262.16 60.7662 261.93 61.9968C261.7 63.1973 259.98 65.8985 259.98 65.8985C259.98 65.8985 258.76 66.6388 257.77 66.6388H255.1C255.1 66.6388 253.88 66.8889 252.9 66.8889C252.247 66.8889 251.427 67.0423 250.44 67.3491C250.44 67.3491 249.96 68.5896 247.29 70.5405C244.6 72.4913 245.8 71.9911 245.8 71.9911C245.8 71.9911 244.6 73.7318 241.91 73.982C239.22 74.192 238.97 71.0407 238.97 71.0407C238.97 71.0407 237.53 70.3004 236.78 69.0898C236.03 67.8493 235.8 66.8989 235.8 66.8989L234.83 67.109C234.83 67.109 233.86 67.3491 233.11 67.8493C232.39 68.3595 231.89 68.5996 230.94 68.5996H228.97C228.24 68.5996 227.25 69.56 227.25 69.56C227.25 69.56 223.86 70.0503 223.11 70.0503C222.36 70.0503 222.36 73.2416 221.64 73.7318C220.91 74.202 220.41 73.4917 218.94 73.2416C217.47 73.0015 217.97 72.2512 217.97 72.2512C217.97 72.2512 216.51 72.7514 214.3 74.9424C212.11 77.1433 213.57 75.9428 213.08 76.8932C212.58 77.8836 211.63 78.1338 210.39 79.0842C209.18 80.0746 209.18 80.5748 209.18 80.5748L206.97 82.0254H204.72ZM204.72 82.0254L204.77 81.2851" stroke="var(--stroke-0, #251E1C)" stroke-width="0.75"/>
<path id="Vector_5" d="M277.43 152.906C276.9 152.756 275.98 152.656 275.59 151.986C275.2 151.355 275.06 151.455 274.27 150.815C273.5 150.175 273.64 150.285 272.57 149.895C271.54 149.505 271.65 149.655 270.48 149.655C269.31 149.655 269.05 149.655 268.01 149.264C266.98 148.874 268.01 149.264 268.01 148.874C268.01 148.484 267.88 147.954 267.88 147.034C267.88 146.113 267.09 146.003 265.53 144.803C263.97 143.622 265.92 143.522 265.41 142.602C264.88 141.681 265.41 142.602 264.88 142.462C264.37 142.321 263.44 141.151 263.05 139.99C262.67 138.81 263.83 139.07 264.23 138.93C264.63 138.82 265.54 137.649 266.07 137.119C266.58 136.589 265.93 135.949 265.93 135.418C265.93 134.888 265.54 134.358 265.68 133.858C265.81 133.328 265.68 133.188 265.68 132.547C265.68 131.877 265.68 131.627 265.01 131.087C264.38 130.596 262.44 131.197 262.44 131.197C262.44 131.197 261.47 131.657 259.5 130.446C257.55 129.206 257.31 130.196 257.31 130.196C257.31 130.196 256.34 130.446 254.86 130.446C253.38 130.446 252.19 129.456 252.19 129.456L252.41 128.746C252.66 127.995 252.41 127.505 252.41 126.305C252.41 125.104 252.41 125.314 252.19 124.604C251.94 123.854 252.19 123.363 251.69 121.412C251.2 119.432 251.45 120.422 251.45 118.721C251.45 117.021 251.45 118.721 251.2 117.021C250.96 115.28 251.2 117.021 250.23 116.02C249.26 115.03 249.01 114.569 248.76 113.329C248.52 112.128 247.79 111.138 247.79 111.138H246.57C246.57 111.138 245.12 111.638 244.38 111.638C243.64 111.638 242.91 110.648 242.91 110.648V109.937C242.91 109.187 241.94 109.187 241.94 109.187C241.94 109.187 240.97 109.187 239.75 109.437C238.53 109.677 238.76 110.138 238.76 110.138C238.76 110.138 238.76 111.138 238.53 112.339C238.28 113.579 236.56 114.81 236.56 114.81H233.14C231.42 114.81 232.41 113.579 232.17 112.829C231.92 112.118 231.19 112.829 229.97 112.579C228.76 112.339 229.97 112.579 228.76 112.118C227.54 111.628 227.78 110.878 227.78 110.878L227.28 109.427C227.28 109.427 226.31 108.677 225.58 107.937C224.83 107.226 223.63 107.937 222.89 107.937C222.15 107.937 221.89 108.187 220.94 108.187C219.99 108.187 219.22 107.937 219.22 107.937H212.61C210.17 107.937 212.61 107.937 211.9 107.226C211.19 106.516 211.9 107.226 211.9 106.486C211.9 105.746 210.42 106.486 209.44 106.486H207.98C207.98 106.486 206.03 104.535 204.09 104.285C202.14 104.045 204.09 104.285 203.34 104.285C202.59 104.285 202.59 103.055 202.59 103.055L202.84 101.344C202.84 101.344 202.88 101.344 202.98 101.314L200.95 101.064C200.95 101.064 200.08 101.064 199.19 101.954C198.3 102.844 198.13 103.905 198.13 103.905C198.13 103.905 197.6 101.244 195.47 102.304C193.37 103.365 192.66 104.255 192.66 104.255C192.66 104.255 192.84 104.745 191.44 103.725C190.02 102.664 188.6 100.714 187.54 102.484C186.49 104.255 186.31 104.955 185.8 105.636C185.27 106.336 185.27 107.046 184.03 107.757C182.81 108.467 182.27 109.887 181.03 109.887C179.79 109.887 175.23 108.997 174.34 108.827C173.45 108.647 174.34 108.117 172.74 108.477C171.15 108.827 172.38 107.947 171.15 108.827C169.91 109.717 169.91 110.598 169.22 110.598C168.53 110.598 168.16 109.887 166.76 109.707C165.34 109.527 165.16 108.817 163.92 109.887C162.69 110.948 165.16 110.418 162.69 110.948C160.23 111.478 160.23 111.298 158.65 110.768C157.05 110.238 154.4 108.287 153.52 109.347C152.65 110.408 152.48 112.539 152.3 113.209C152.12 113.919 152.12 114.439 151.77 115.15C151.41 115.86 152.48 116.21 150.55 116.75C148.6 117.281 147.72 117.641 147.54 116.75L147.36 115.86C147.36 115.86 145.07 115.5 144.01 116.57C142.97 117.631 142.08 118.871 141.55 119.412C141.02 119.942 141.02 120.122 140.31 120.472C139.61 120.822 141.02 123.443 139.79 124.684C138.55 125.924 137.66 126.635 137.66 126.635C137.66 126.635 137.48 128.235 137.13 128.756C136.79 129.256 135.73 129.436 135.55 129.956C135.37 130.486 136.61 132.437 135.37 133.858C134.15 135.278 131.5 135.459 131.5 135.459C131.5 135.459 130.79 134.568 130.26 136.689C129.73 138.78 129.73 140.201 129.73 140.201C129.73 140.201 129.91 140.561 130.09 141.621C130.27 142.682 128.16 143.932 128.16 143.932C128.16 143.932 127.8 144.632 127.45 145.343C127.09 146.013 126.76 147.084 126.92 147.964C127.1 148.854 128.16 150.625 128.16 150.625L127.98 152.916C127.98 152.916 127.45 153.776 126.92 153.947L126.41 154.127C126.41 154.127 124.99 155.897 124.46 157.138C123.93 158.378 123.76 158.909 123.05 159.799C122.34 160.679 122.16 161.71 120.92 162.06C119.7 162.42 120.05 162.42 118.65 162.59C117.23 162.77 118.47 162.06 117.23 162.77C115.99 163.481 115.82 163.831 114.76 163.481C113.7 163.13 113.7 162.95 112.81 162.95H111.05C109.47 162.95 109.83 162.77 108.05 162.77C106.27 162.77 106.11 163.13 104.87 162.77C103.65 162.42 103.47 161.92 102.94 161.92C102.41 161.92 102.94 161.57 101.52 161.92C100.12 162.24 102.23 161.36 100.12 162.24C98 163.13 97.47 163.301 97.29 164.371C97.11 165.431 98.18 166.142 98.18 166.142C98.18 166.142 99.42 168.273 99.42 168.973V171.954C99.42 172.665 97.82 173.375 99.6 173.375C101.38 173.375 102.59 173.725 102.59 173.725V175.326C102.59 176.376 102.41 177.086 104.19 178.157C105.95 179.187 105.24 178.157 106.65 179.367C108.06 180.608 107.36 179.187 108.06 180.608C108.77 182.029 108.95 181.849 108.95 182.909C108.95 183.969 109.13 184.5 108.77 185.03C108.41 185.53 110.37 184.68 108.41 185.53C106.47 186.441 104.36 188.181 104.36 188.181C104.36 188.181 102.41 189.602 101.7 189.952C101.01 190.312 99.42 190.312 98 191.193C96.58 192.083 96.94 191.543 95.54 192.783C94.12 194.024 94.83 192.963 94.12 194.024C93.41 195.054 93.59 194.524 93.41 195.765C93.23 197.005 93.23 198.606 93.23 199.846V201.077C93.23 201.077 92.89 202.317 92.19 202.317H89.72C89.72 202.317 89.36 202.317 89.01 203.168C88.65 204.058 89.54 204.058 88.65 205.119C87.78 206.179 87.25 207.42 87.25 207.42C87.25 207.42 86.72 208.13 85.83 208.83C84.96 209.541 85.12 209.541 84.25 210.601C83.37 211.631 84.43 213.582 82.48 211.982C80.53 210.381 81.95 210.741 79.49 209.18C77.01 207.59 75.79 206.349 75.79 206.349C75.79 206.349 75.08 205.109 74.37 205.989C73.66 206.869 73.48 207.76 73.84 208.28C74.19 208.81 74.37 208.99 74.73 209.881C75.08 210.731 74.55 210.941 75.08 211.441C75.61 211.972 75.97 212.682 75.97 212.682C75.97 212.682 76.15 213.742 77.18 214.813C77.54 215.163 77.63 215.233 77.63 215.233L77.67 215.273C77.67 215.273 77.83 215.453 78.25 215.883C79.49 217.114 79.85 216.584 80.18 217.644C80.54 218.674 79.84 221.516 79.67 222.046C79.49 222.576 79.32 222.756 79.14 223.467C78.96 224.167 78.08 224.517 79.14 225.057C80.18 225.587 80.54 225.587 80.89 226.298C81.25 226.968 81.42 226.968 81.42 227.858V230.159C81.42 231.05 81.6 231.22 81.6 231.76C81.6 232.3 81.78 232.46 81.78 233.171C81.78 233.881 81.07 236.862 81.43 237.393C81.78 237.923 82.14 238.453 81.78 239.163L81.43 239.874C81.43 239.874 81.07 240.574 80.19 240.924C79.32 241.274 78.97 240.744 78.61 241.634C78.47 241.995 78.24 242.275 78.03 242.485C78.1 242.485 78.19 242.485 78.25 242.525C79.67 242.705 78.25 242.525 78.43 243.055C78.61 243.555 79.14 243.415 80.36 243.415C81.58 243.415 81.42 243.205 82.31 243.205C83.2 243.205 83.73 243.565 84.6 243.565C85.47 243.565 85.29 244.095 85.29 244.095L85.82 246.226V247.827L86.18 250.128L84.25 249.948L83.55 250.658C82.84 251.369 82.49 252.399 82.49 252.399C82.49 252.399 81.78 252.929 80.01 253.82C78.26 254.71 79.85 254.88 79.85 255.59C79.85 256.301 79.85 256.641 79.67 257.531C79.49 258.422 78.96 258.061 78.43 258.422C77.9 258.782 77.9 259.312 77.9 259.802C77.9 260.332 78.78 261.573 78.08 262.113C77.37 262.643 75.8 262.293 75.8 262.293L76.32 264.594L76.15 265.305C75.97 266.015 75.44 265.835 75.26 266.365C75.08 266.895 75.26 266.365 76.85 266.545C78.43 266.725 77.54 266.365 77.9 265.835C78.25 265.305 78.61 264.414 78.61 264.414L80.36 263.884C82.13 263.364 81.96 263.004 81.96 263.004L82.14 262.473C82.32 261.943 83.2 262.293 83.91 261.943C84.61 261.583 85.65 262.123 85.65 262.123C85.65 262.123 87.07 263.364 88.82 264.774C90.59 266.195 89.88 265.835 89.88 265.835C89.88 265.835 90.23 267.606 91.48 268.816C92.71 270.057 92.18 268.456 93.07 268.286C93.94 268.106 93.07 268.286 94.11 268.646C95.17 268.996 95.71 269.536 96.75 268.826C97.81 268.116 97.81 267.766 97.81 267.766C97.81 267.766 99.23 266.385 100.82 265.145C102.4 263.904 102.04 264.434 103.46 263.734C104.86 263.024 103.46 263.734 104.5 263.734C105.54 263.734 105.39 264.434 106.1 264.254C106.81 264.074 106.81 263.734 107.52 263.024C108.22 262.313 108.22 263.024 110.17 263.204C112.1 263.384 111.75 263.564 112.62 264.084C113.51 264.614 113.15 265.685 114.57 266.565C115.98 267.416 114.57 266.565 115.63 267.416C116.68 268.306 117.39 268.656 117.75 269.016C118.1 269.376 117.75 269.016 116.69 270.617C115.64 272.208 117.05 271.327 117.75 271.327C118.45 271.327 117.75 271.327 121.44 272.918C125.15 274.519 122.5 273.098 123.57 272.918C124.62 272.738 123.57 272.208 123.57 271.507C123.57 270.807 123.21 269.907 123.04 269.026C122.92 268.433 122.803 267.856 122.69 267.295C122.51 266.405 122.16 266.055 122.16 265.525C122.16 264.994 119.7 263.764 118.12 262.513C116.52 261.273 118.12 262.513 116.52 261.803C114.93 261.093 115.64 261.273 114.58 260.382C113.52 259.492 113.87 258.472 114.4 257.931C114.93 257.401 115.11 257.041 115.11 257.041C115.11 257.041 115.11 255.63 114.93 254.39C114.81 253.563 115.047 252.736 115.64 251.909C116.52 250.708 115.64 251.909 118.98 251.769C122.33 251.559 119.87 251.559 119.87 251.559L121.45 248.407C121.45 248.407 121.63 246.817 121.81 245.396C121.99 243.975 121.63 244.686 121.63 243.975C121.63 243.265 120.59 243.125 120.59 243.125V241.354C120.59 240.644 120.23 240.294 119.88 239.063C119.52 237.823 119.88 239.063 120.06 238.353C120.24 237.643 120.77 236.582 120.77 236.582L121.9 233.541C121.9 233.541 122.31 231.51 122.61 230.209C122.91 228.899 123.32 228.689 123.83 228.299C124.32 227.908 124.72 227.588 125.74 227.198C126.75 226.778 126.73 227.198 127.46 227.198C128.15 227.198 129.18 227.378 130.68 227.908C132.19 228.399 131.8 228.089 131.8 228.089H132.81C133.11 228.089 133.01 226.998 133.32 226.388C133.6 225.788 134.22 223.236 134.42 222.736C134.63 222.246 134.52 221.536 134.52 221.536C134.52 221.536 135.33 220.335 135.62 220.125C135.94 219.915 136.53 219.515 137.04 219.205C137.55 218.915 137.55 218.594 138.07 218.004C138.56 217.394 138.37 216.904 138.45 216.584C138.56 216.303 139.06 215.383 139.06 215.383L141.7 211.241C141.7 211.241 143.52 208.62 144.12 208.12C144.73 207.59 144.51 207.8 145.22 207.59C145.93 207.41 146.14 207.52 146.44 207.52C146.74 207.52 146.64 208.51 146.85 209.541C147.05 210.531 147.05 210.041 147.66 209.931C148.26 209.821 147.56 209.22 147.56 208.73C147.56 208.24 147.56 208.02 147.45 207.52C147.35 206.989 147.24 206.809 146.96 205.179C146.64 203.558 147.16 204.188 147.75 203.558C148.37 202.948 147.75 203.558 148.46 203.268C148.933 203.054 149.34 202.854 149.68 202.668C150.17 202.347 149.68 202.668 149.68 201.957V200.817C149.68 200.437 150.48 200.437 150.78 200.216C151.1 200.006 151.98 199.606 152.09 199.226C152.2 198.796 151.71 197.195 151.71 196.885C151.71 196.605 151.1 196.285 151.1 195.464C151.1 194.644 151.89 194.974 152.6 194.474C153.29 193.944 152.6 193.664 152.6 193.163C152.6 192.633 152.52 192.453 152.52 192.023C152.52 191.643 151.6 191.923 150.59 191.533C149.58 191.143 150.49 190.502 150.49 190.502C150.49 189.932 150.4 188.371 151.9 187.171C153.41 185.97 151.82 186.791 151.11 186.401C150.38 185.97 150.79 185.97 150.4 185.48C149.99 184.95 149.48 183.959 150.6 183.069C151.72 182.159 151.51 182.749 152.22 182.039C152.93 181.328 152.42 181.328 152.62 180.728C152.82 180.118 152.82 179.698 152.82 179.698C152.82 179.698 151.73 178.177 152.43 177.177C153.14 176.186 153.85 176.686 154.74 176.186C155.66 175.656 154.74 176.186 154.74 175.866C154.74 175.546 154.74 175.476 155.06 174.765C155.36 174.055 155.47 174.235 156.87 173.845C158.29 173.415 156.87 173.845 157.58 173.945C158.29 174.045 157.9 174.655 157.9 174.655C157.9 174.655 156.87 175.146 158.5 176.356C160.12 177.557 159.32 176.356 160.2 176.356H160.95H160.93V177.277L161.23 178.477C161.52 179.688 161.23 178.477 161.94 177.447C162.65 176.446 162.25 176.736 162.25 175.746C162.25 174.755 162.25 174.826 162.33 174.115C162.43 173.405 162.65 173.725 162.94 173.445C163.26 173.125 163.36 173.125 164.16 173.015C164.97 172.915 165.47 173.445 165.77 173.445C166.09 173.445 166.99 173.015 169.52 173.015C172.05 173.015 169.52 173.015 170.32 172.635C171.11 172.204 170.32 172.635 171.22 172.525C172.14 172.424 171.82 172.104 172.14 171.924C172.44 171.714 172.55 171.494 173.15 171.214C173.76 170.894 173.86 171.004 176.18 170.604C178.51 170.184 176.48 169.893 176.99 169.373C177.49 168.873 176.57 168.483 176.57 168.483L175.08 168.763L174.27 169.083C174.27 169.083 173.35 169.473 172.85 168.763C172.34 168.053 171.93 169.573 171.93 169.573C171.93 169.573 171.33 169.683 170.84 170.003C170.33 170.284 170.73 170.784 170.63 171.214C170.53 171.604 169.82 171.004 168.83 170.294C167.79 169.583 168.42 171.214 167.91 171.394C167.42 171.604 167.91 171.394 167.3 171.214C166.7 171.004 167 170.684 166.7 170.003C166.38 169.293 166.7 170.003 165.99 171.984C165.28 174.035 165.28 171.604 165.28 171.604C165.28 171.604 164.87 170.404 165.89 169.473C166.9 168.583 165.89 169.473 166.29 169.293C166.7 169.083 166.8 169.193 167.9 169.083C169.01 168.983 168.82 169.083 169.42 168.873C170.03 168.663 169.81 168.593 170.33 168.273C170.84 167.993 169.72 167.382 170.03 167.172C170.33 166.972 170.84 166.972 171.34 166.752C171.85 166.572 173.96 167.172 174.47 166.852C174.98 166.572 175.26 166.142 175.78 165.962C176.29 165.752 177.95 166.212 177.95 166.212L179.12 165.251C180.31 164.341 179.12 165.251 179.12 164.341C179.12 163.381 179.6 162.67 179.6 162.67L181.94 163.631C181.94 163.631 182.89 162.67 183.82 162.21C184.77 161.75 185.02 161.29 186.19 160.579C187.36 159.879 188.52 159.629 190.65 158.919C192.78 158.208 190.65 158.919 192.07 157.998C193.49 157.048 192.07 157.998 192.98 157.498C193.94 157.038 193.69 156.117 195.57 155.167C197.47 154.207 202.16 153.036 203.81 153.036H206.62C207.82 153.036 208.5 153.036 211.33 153.286C214.17 153.526 212.75 153.496 213.92 154.207C215.09 154.917 215.09 155.407 215.09 155.407C215.09 155.407 216.51 155.407 218.38 155.617C220.25 155.867 221.93 155.617 221.93 155.617C221.93 155.617 223.33 157.038 225.43 157.488C227.56 157.988 226.62 157.738 228.72 157.738C230.82 157.738 231.08 157.738 232.49 157.978C233.89 158.188 233.89 158.689 236.47 160.319C239.06 161.98 237.65 161.98 237.89 163.361C238.14 164.781 237.89 163.361 238.85 165.742C239.76 168.073 239.76 166.912 240.47 167.362C241.18 167.852 241.43 168.073 242.6 168.533C243.77 169.003 244.24 169.023 246.35 169.713C248.48 170.414 247.52 171.374 247.99 172.324C248.48 173.245 248.7 173.955 248.93 174.665C249.18 175.376 248.93 176.786 248.93 176.786C248.93 176.786 250.35 177.497 251.06 177.707C251.75 177.957 251.28 179.838 251.28 179.838C251.28 179.838 251.75 181.258 253.64 182.169C255.52 183.129 255.06 183.129 256.68 184.3C258.33 185.47 256.68 184.3 257.39 185.72C258.1 187.131 257.39 185.72 257.39 187.841C257.39 189.962 258.56 189.472 258.56 189.472H260.69C261.4 189.472 262.11 189.712 262.82 190.182C263.51 190.642 263.73 191.353 264.21 192.053C264.7 192.763 266.1 195.344 266.1 195.344L266.57 193.474C266.57 193.474 267.28 192.053 267.5 191.343C267.73 190.632 267.97 187.121 267.97 187.121C267.97 187.121 268.21 185 268.45 184.08C268.68 183.129 269.87 177.707 269.87 176.776C269.87 175.846 270.08 175.116 270.08 175.116L271.28 171.364L273.17 167.853C273.17 167.853 275.75 161.73 275.98 161.02C276.21 160.309 279.26 155.137 279.26 155.137L279.51 154.077L278.59 153.326C278.59 153.326 278.06 153.086 277.56 152.946L277.43 152.906Z" stroke="var(--stroke-0, #251E1C)" stroke-width="0.75"/>
<path id="Vector_6" d="M202.95 101.314C203.09 101.244 203.37 101.144 204.05 100.854C205.25 100.363 204.05 99.653 204.05 99.653L204.54 98.9127C205.01 98.1624 205.49 97.202 205.49 97.202L204.76 96.4617C204.04 95.7514 205.24 94.0106 205.24 94.0106L205.98 93.5204C206.73 93.0602 205.98 92.53 205.98 91.3295C205.98 90.1289 205.01 89.3786 205.01 89.3786L204.53 88.3882C204.04 87.4278 204.04 86.9376 204.28 86.1872C204.53 85.4769 204.53 84.7366 204.53 84.7366L204.71 82.0354H206.96L209.17 80.5848C209.17 80.5848 209.17 80.0946 210.38 79.0942C211.62 78.1438 212.57 77.8936 213.07 76.9032C213.56 75.9528 212.1 77.1533 214.29 74.9524C216.5 72.7514 217.96 72.2612 217.96 72.2612C217.96 72.2612 217.46 73.0115 218.93 73.2516C220.41 73.5018 220.9 74.2121 221.63 73.7419C222.35 73.2416 222.38 70.0603 223.1 70.0603C223.82 70.0603 227.24 69.5701 227.24 69.5701C227.24 69.5701 228.23 68.6096 228.96 68.6096H230.93C231.88 68.6096 232.37 68.3595 233.1 67.8593C233.85 67.3591 234.82 67.119 234.82 67.119L235.79 66.9089C235.79 66.9089 236.02 67.8593 236.77 69.0998C237.51 70.3004 238.96 71.0507 238.96 71.0507C238.96 71.0507 239.21 74.2021 241.9 73.992C244.59 73.7419 245.79 72.0011 245.79 72.0011C245.79 72.0011 244.58 72.5013 247.28 70.5505C249.95 68.5996 250.43 67.3591 250.43 67.3591C251.92 66.8989 251.91 66.8989 252.89 66.8989C253.87 66.8989 255.09 66.6488 255.09 66.6488H257.76C258.75 66.6488 259.97 65.9085 259.97 65.9085C259.97 65.9085 261.69 63.2173 261.92 62.0068C262.16 60.7763 261.92 58.8254 263.64 58.5753C265.34 58.3352 264.85 57.835 266.33 57.835H267.79C270.48 57.835 270.73 58.3352 272.19 57.835C273.65 57.3348 275.35 57.5849 277.07 57.5849C278.79 57.5849 279.77 56.8746 280.01 57.5849C280.26 58.3352 279.75 58.5753 281.23 58.5753C282.71 58.5753 283.68 58.3352 283.68 58.3352L284.65 58.0851L286.6 57.5849C286.6 57.5849 286.6 56.8746 287.59 57.3348C288.57 57.835 287.35 57.3348 288.57 57.835C289.78 58.3352 293.45 59.8158 293.45 59.8158C293.45 59.8158 293.72 60.276 295.17 60.276C296.62 60.276 296.13 61.5166 296.62 60.276C297.12 59.0655 297.12 57.1247 297.12 57.1247V55.1338L298.32 53.6832L298.28 52.5427C299.01 52.7528 300.85 53.253 302.37 52.6527C303.92 52.0125 304.52 51.1221 304.52 51.1221C304.52 51.1221 306.16 51.022 306.67 51.022C307.18 51.022 309.83 50.922 309.83 50.922H311.96L312.58 51.3022L313.31 51.9424L313.81 51.1221L313.71 50.6619L314.19 49.9516C314.19 49.9516 314.07 48.8811 314.65 48.7811C315.23 48.631 314.88 48.631 315.71 48.4209C316.54 48.1708 316.77 48.0708 317.36 47.7106C317.94 47.3505 317.94 47.4705 318.53 47.1104L319.13 46.7602C319.13 46.7602 319.84 46.9003 319.84 47.7106C319.84 48.521 320.53 48.521 319.84 49.2313C319.13 49.9416 319.59 50.2917 318.53 50.7519C317.47 51.2121 317.49 51.2121 317.01 51.8124C316.54 52.4226 315.36 52.3826 316.42 52.9929C317.46 53.5932 317.36 54.0433 318.17 53.8032C318.98 53.5931 319.12 53.6932 319.69 52.9929L320.3 52.2826L320.65 51.3622L320.52 50.3017L320.75 49.5914C320.75 49.5914 321 49.5914 321.22 50.0616C321.45 50.5218 321.93 50.0216 321.93 50.872C321.93 51.7223 322.28 52.1725 321.93 52.7828C321.57 53.343 322.28 53.343 321.57 54.0533C320.86 54.7637 320.03 54.4135 320.38 55.474C320.74 56.5344 320.65 56.9946 320.99 56.9946C321.33 56.9946 321.44 56.2843 322.04 56.8946C322.61 57.4648 322.75 56.7545 322.61 57.4648C322.51 58.1651 322.4 58.8654 321.8 59.3356C321.21 59.8258 320.74 60.186 320.38 60.8563C320.02 61.5666 320.85 61.1064 319.92 62.0668C318.96 62.9872 319.1 63.4474 318.96 64.2978C318.86 65.1081 318.98 65.8184 318.75 66.5287C318.51 67.239 318.65 67.4491 318.05 67.4491C317.45 67.4491 316.86 69.0098 317.09 69.7201C317.34 70.3904 318.63 70.7406 318.05 71.3408C317.45 71.9111 317.11 72.1512 316.99 72.7614C316.86 73.3317 317.56 73.4717 317.92 74.182C318.27 74.8523 318.75 75.2125 318.4 75.5626C318.04 75.9228 318.75 75.9228 316.98 75.9228C315.21 75.9228 313.81 76.9833 314.5 77.9437C315.21 78.8641 315 77.9437 315.21 78.8641C315.46 79.8145 315.69 79.9145 315.33 80.5248C314.97 81.095 317.44 83.326 317.56 83.8162C317.69 84.2764 317.08 83.9163 318.27 85.0868C319.46 86.2973 318.41 86.9776 320.03 86.4073C321.69 85.7971 321.57 86.5074 321.69 85.7971C321.8 85.0868 321.69 84.5265 321.69 84.5265C321.69 84.5265 321.8 83.6761 322.28 84.2764C322.73 84.8867 323.09 84.9867 323.09 85.4469C323.09 85.9471 323.09 86.1472 323.92 87.3277C324.74 88.4982 324.27 88.4982 325.45 89.4486C326.62 90.4091 327.21 91.0793 327.68 91.2194C328.14 91.3194 328.97 91.4295 328.97 91.9297C328.97 92.3899 329.33 92.64 329.33 93.3503C329.33 94.0206 329.45 93.1002 329.8 94.7309C330.16 96.3916 330.51 96.7418 330.27 97.202C330.04 97.6722 330.27 98.2725 329.33 98.3725C328.39 98.4925 328.39 98.3725 328.14 98.9828C327.92 99.553 326.86 100.754 326.86 100.754C326.86 100.754 326.86 101.314 326.03 101.564C325.2 101.814 324.85 101.664 324.51 102.164C324.16 102.634 324.28 102.984 323.68 103.345C323.09 103.705 322.52 104.165 322.16 104.375L321.8 104.615C321.8 104.615 321.09 105.936 322.4 105.325C323.68 104.735 324.39 103.905 324.51 104.265L324.63 104.625L324.16 105.806L323.1 107.927C323.1 107.927 323.69 106.866 324.75 107.116C325.81 107.336 325.68 108.187 326.62 107.576C327.57 107.016 328.15 106.516 328.5 106.516C328.85 106.516 330.04 106.666 330.04 106.666C330.04 106.666 330.39 106.516 330.85 106.766C331.34 107.016 331.79 107.576 330.73 107.687C329.68 107.827 329.45 108.047 328.85 108.287C328.28 108.537 327.57 108.737 327.68 109.347C327.78 109.917 327.11 110.058 328.28 110.058C329.45 110.058 330.73 109.097 330.73 109.097L331.69 109.247C331.69 109.247 330.87 109.817 332.15 109.607C333.44 109.347 334.5 108.287 334.5 108.287L334.42 108.307C334.42 108.307 335.61 108.207 335.25 108.767C334.9 109.377 333.95 109.937 333.36 110.298C332.78 110.658 329.73 112.208 329.13 112.569C328.55 112.909 327.26 113.589 326.67 113.949C326.1 114.299 325.97 114.77 324.78 115.26C323.62 115.72 322.45 115.48 321.74 115.83C321.03 116.19 320.1 116.68 319.75 117.141C319.4 117.601 319.4 118.201 318.69 118.561C317.99 118.911 317.4 118.911 316.57 118.801C315.76 118.661 315.05 117.601 314.7 118.801C314.35 119.972 315.41 120.182 315.41 120.182C315.41 120.182 315.28 120.792 314.92 121.142C314.57 121.492 314.8 122.663 314.23 122.913C313.63 123.123 312.93 123.373 312.11 123.373C311.29 123.373 312.22 122.913 310.24 123.373C308.23 123.833 309.75 124.794 309.75 124.794L310.11 126.175C310.11 126.175 307.88 127.935 307.05 128.786C306.24 129.606 304.36 130.877 304.36 130.877C304.36 130.877 302.49 131.837 302.13 131.937C301.78 132.047 300.72 132.537 300.36 132.747C300.01 133.007 299.55 133.007 298.84 133.358C298.13 133.718 297.66 133.618 296.96 133.718C296.25 133.818 296.12 133.818 295.54 134.068C294.93 134.318 294.23 135.138 293.89 135.238C293.54 135.338 292.25 136.549 292.25 136.549L291.44 137.469C291.44 137.469 290.83 138.07 290.73 138.53C290.6 138.99 290.48 140.521 290.48 140.521C290.48 140.521 290.38 142.071 289.56 142.752C288.73 143.452 288.26 145.363 287.8 145.833C287.33 146.283 288.03 146.543 286.84 146.643C285.68 146.743 284.99 147.104 284.51 147.454C284.05 147.814 283.34 147.354 282.28 148.874C281.22 150.395 281.34 149.935 281.22 150.395C281.12 150.885 282.29 149.935 280.99 151.706C279.71 153.436 279.35 154.037 279.35 154.037L278.43 153.286C278.43 153.286 277.9 153.046 277.4 152.906C276.87 152.756 275.95 152.656 275.56 151.986C275.16 151.345 275.03 151.445 274.24 150.815C273.46 150.175 273.6 150.285 272.54 149.895C271.51 149.505 271.61 149.655 270.45 149.655C269.29 149.655 269.02 149.655 267.98 149.264C266.95 148.874 267.98 149.264 267.98 148.874C267.98 148.484 267.85 147.954 267.85 147.034C267.85 146.113 267.06 146.013 265.5 144.803C263.94 143.632 265.89 143.522 265.38 142.602C264.85 141.681 265.38 142.602 264.85 142.462C264.34 142.321 263.41 141.161 263.02 139.99C262.64 138.82 263.81 139.07 264.2 138.93C264.6 138.82 265.51 137.649 266.04 137.119C266.55 136.589 265.9 135.949 265.9 135.418C265.9 134.888 265.51 134.358 265.65 133.858C265.78 133.328 265.65 133.178 265.65 132.547C265.65 131.867 265.65 131.617 264.98 131.087C264.34 130.586 262.41 131.197 262.41 131.197C262.41 131.197 261.44 131.647 259.47 130.446C257.52 129.206 257.28 130.196 257.28 130.196C257.28 130.196 256.3 130.446 254.83 130.446C253.36 130.446 252.16 129.456 252.16 129.456L252.38 128.746C252.63 128.005 252.38 127.545 252.38 126.305C252.38 125.064 252.38 125.314 252.16 124.604C251.91 123.864 252.16 123.363 251.66 121.412C251.17 119.432 251.42 120.422 251.42 118.721C251.42 117.021 251.42 118.721 251.17 117.021C250.93 115.28 251.17 117.021 250.2 116.02C249.23 115.03 248.98 114.569 248.73 113.329C248.49 112.128 247.76 111.138 247.76 111.138H246.54C246.54 111.138 245.09 111.638 244.35 111.638C243.61 111.638 242.88 110.648 242.88 110.648V109.937C242.88 109.187 241.91 109.187 241.91 109.187C241.91 109.187 240.94 109.187 239.72 109.437C238.5 109.677 238.73 110.138 238.73 110.138C238.73 110.138 238.73 111.128 238.5 112.339C238.25 113.579 236.53 114.81 236.53 114.81H233.11C231.39 114.81 232.38 113.579 232.14 112.829C231.89 112.118 231.16 112.829 229.94 112.579C228.73 112.329 229.94 112.579 228.73 112.118C227.51 111.628 227.75 110.878 227.75 110.878L227.25 109.427C227.25 109.427 226.28 108.687 225.55 107.937C224.8 107.226 223.61 107.937 222.86 107.937C222.11 107.937 221.9 108.187 220.91 108.187C219.92 108.187 219.19 107.937 219.19 107.937H212.58C210.14 107.937 212.61 107.967 211.87 107.226C211.13 106.486 211.87 107.236 211.87 106.486C211.87 105.736 210.39 106.486 209.41 106.486H207.95C207.95 106.486 206 104.535 204.06 104.285C202.11 104.045 204.06 104.285 203.31 104.285C202.56 104.285 202.56 103.055 202.56 103.055L202.81 101.344C202.81 101.344 202.85 101.344 202.95 101.314ZM202.95 101.314L203.9 101.414" stroke="var(--stroke-0, #251E1C)" stroke-width="0.75"/>
<path id="Vector_7" d="M80.13 240.934C81.02 240.574 81.37 239.884 81.37 239.884L81.72 239.173C82.08 238.463 81.72 237.933 81.37 237.403C81.01 236.872 81.72 233.891 81.72 233.181C81.72 232.47 81.54 232.29 81.54 231.77C81.54 231.25 81.36 231.06 81.36 230.169V227.868C81.36 226.978 81.18 226.978 80.83 226.308C80.48 225.597 80.12 225.597 79.08 225.067C78.02 224.537 78.9 224.177 79.08 223.477C79.26 222.766 79.44 222.586 79.61 222.056C79.79 221.526 80.48 218.684 80.12 217.654C79.78 216.594 79.43 217.124 78.19 215.893C77.77 215.463 77.64 215.323 77.61 215.283H77.59C77.59 215.283 77.48 215.183 77.12 214.823C76.08 213.762 75.91 212.692 75.91 212.692C75.91 212.692 75.56 211.982 75.02 211.451C74.49 210.951 75.02 210.741 74.67 209.891C74.31 209 74.14 208.83 73.78 208.29C73.42 207.77 73.6 206.879 74.31 205.999C75.02 205.119 75.73 206.359 75.73 206.359C75.73 206.359 76.94 207.6 79.43 209.19C81.89 210.751 80.47 210.391 82.42 211.992C84.36 213.592 83.31 211.631 84.19 210.611C85.06 209.551 84.9 209.551 85.77 208.84C86.66 208.14 87.19 207.43 87.19 207.43C87.19 207.43 87.72 206.189 88.59 205.129C89.48 204.068 88.59 204.068 88.95 203.178C89.3 202.327 89.66 202.327 89.66 202.327H92.13C92.84 202.327 93.17 201.087 93.17 201.087V199.856C93.17 198.616 93.17 197.015 93.35 195.775C93.53 194.534 93.35 195.064 94.06 194.034C94.77 192.973 94.06 194.034 95.48 192.793C96.88 191.563 96.52 192.093 97.94 191.203C99.36 190.312 100.95 190.312 101.64 189.962C102.35 189.602 104.3 188.191 104.3 188.191C104.3 188.191 106.41 186.451 108.35 185.54C110.3 184.68 108.35 185.54 108.71 185.04C109.06 184.51 108.89 183.989 108.89 182.919C108.89 181.849 108.71 182.029 108 180.618C107.3 179.197 108 180.618 106.59 179.377C105.17 178.167 105.88 179.197 104.13 178.167C102.36 177.106 102.53 176.396 102.53 175.336V173.735C102.53 173.735 101.31 173.385 99.54 173.385C97.77 173.385 99.36 172.675 99.36 171.964V168.983C99.36 168.283 98.12 166.152 98.12 166.152C98.12 166.152 97.06 165.441 97.23 164.381C97.41 163.321 97.94 163.14 100.06 162.25C102.17 161.37 100.06 162.25 101.46 161.93C102.88 161.58 102.34 161.93 102.88 161.93C103.42 161.93 103.59 162.43 104.81 162.78C106.05 163.14 106.23 162.78 107.99 162.78C109.75 162.78 109.41 162.96 110.99 162.96H112.75C113.63 162.96 113.63 163.14 114.7 163.491C115.76 163.851 115.93 163.491 117.17 162.78C118.41 162.07 117.17 162.78 118.59 162.6C119.99 162.42 119.63 162.42 120.86 162.07C122.1 161.72 122.28 160.689 122.99 159.809C123.7 158.919 123.87 158.388 124.4 157.148C124.93 155.907 126.35 154.137 126.35 154.137L126.86 153.956C127.39 153.786 127.92 152.926 127.92 152.926L128.1 150.635C128.1 150.635 127.04 148.864 126.86 147.974C126.7 147.084 127.04 146.023 127.39 145.353C127.74 144.642 128.1 143.942 128.1 143.942C128.1 143.942 130.21 142.702 130.03 141.631C129.85 140.571 129.67 140.211 129.67 140.211C129.67 140.211 129.67 138.79 130.2 136.699C130.73 134.578 131.44 135.469 131.44 135.469C131.44 135.469 134.09 135.288 135.31 133.868C136.55 132.447 135.31 130.496 135.49 129.966C135.67 129.446 136.73 129.266 137.07 128.766C137.42 128.245 137.6 126.645 137.6 126.645C137.6 126.645 138.49 125.934 139.73 124.694C140.96 123.453 139.55 120.832 140.25 120.482C140.96 120.132 140.96 119.952 141.49 119.422C142.02 118.891 142.91 117.651 143.95 116.58C145.01 115.52 147.3 115.87 147.3 115.87L147.48 116.76C147.66 117.651 148.53 117.291 150.49 116.76C152.42 116.23 151.36 115.87 151.71 115.16C152.06 114.449 152.06 113.929 152.24 113.219C152.42 112.549 152.6 110.418 153.46 109.357C154.35 108.297 157 110.248 158.59 110.778C160.17 111.308 160.17 111.488 162.63 110.958C165.1 110.428 162.63 110.958 163.86 109.897C165.1 108.837 165.28 109.537 166.7 109.717C168.1 109.897 168.45 110.608 169.16 110.608C169.87 110.608 169.85 109.717 171.09 108.837C172.32 107.947 171.09 108.837 172.68 108.487C174.28 108.127 173.39 108.667 174.28 108.837C175.17 109.017 179.73 109.897 180.97 109.897C182.21 109.897 182.74 108.477 183.97 107.767C185.21 107.056 185.21 106.346 185.74 105.646C186.25 104.965 186.43 104.265 187.48 102.494C188.54 100.724 189.96 102.674 191.38 103.735C192.78 104.765 192.6 104.265 192.6 104.265C192.6 104.265 193.31 103.375 195.41 102.314C197.54 101.254 198.07 103.915 198.07 103.915C198.07 103.915 198.25 102.854 199.13 101.964C200.02 101.074 200.89 101.074 200.89 101.074L202.92 101.324C203.06 101.254 203.34 101.144 204.02 100.864C205.22 100.363 204.02 99.6631 204.02 99.6631L204.51 98.9227C204.99 98.1724 205.46 97.212 205.46 97.212L204.73 96.4717C204.01 95.7614 205.21 94.0206 205.21 94.0206L205.95 93.5304C206.7 93.0602 205.95 92.57 205.95 91.3395C205.95 90.1089 204.98 89.3886 204.98 89.3886L204.5 88.3982C204.01 87.4378 204.01 86.9376 204.25 86.1972C204.5 85.4869 204.5 84.7466 204.5 84.7466L204.68 82.0454H204.25L202.77 80.8449L201.81 80.1046C201.81 80.1046 199.36 79.6044 198.63 79.6044C197.9 79.6044 196.44 79.6044 194.96 79.3643C194.55 79.2943 194.17 79.0041 193.85 78.654C193.28 79.1142 192.81 79.5043 192.81 79.5043C192.81 79.5043 190.77 82.5857 190.37 82.7658C189.96 82.9758 188.63 85.747 187.61 86.2372C186.6 86.7675 187.11 86.4473 186.29 87.0476C185.48 87.6879 184.96 88.5082 184.96 88.5082C184.96 88.5082 184.04 88.6883 182.39 88.8984C180.76 89.1085 181.07 88.6083 180.26 88.1881C179.45 87.7579 177.81 87.4778 177.1 87.2577C176.39 87.0476 174.95 87.2577 173.65 87.2577C172.35 87.2577 170.78 86.3373 170.78 86.3373C170.78 86.3373 168.85 86.4473 168.23 86.6674C167.62 86.8775 165.38 87.2677 165.38 87.2677C165.38 87.2677 163.94 86.4573 161.71 85.8471C159.46 85.2468 160.89 85.8471 160.57 86.0572C160.27 86.2372 159.97 86.5474 159.66 87.0476C159.35 87.5778 158.24 87.3777 156.19 87.6879C154.17 87.968 153.85 87.868 152.84 87.968C151.81 88.068 152.11 88.3982 151.62 88.7783C151.11 89.2085 151.11 89.4887 150.49 90.299C149.88 91.1594 150 91.2194 150 91.2194C150 91.2194 149.08 91.5395 145.8 91.8497C142.54 92.1398 144.79 92.9501 144.47 93.4804C144.17 93.9806 143.27 93.5804 140.91 93.6905C138.56 93.7605 140.4 94.5808 140.19 95.2111C139.99 95.8114 139.8 95.7013 138.45 96.3116C137.13 96.9419 137.74 96.3116 137.13 95.9214C136.51 95.4912 136.81 95.3912 136.62 95.1111C136.42 94.7809 135.4 93.6905 135.4 93.6905C135.4 93.6905 134.17 93.1602 133.56 93.0502C132.96 92.9501 132.14 92.3499 131.63 91.8397C131.12 91.3194 130.09 89.7888 130.01 89.2886C129.9 88.7583 130.01 88.048 130.21 87.7279C130.42 87.4478 127.55 84.8967 127.35 84.5765C127.15 84.2464 125.91 82.4456 125.91 82.0154C125.91 81.6353 125.42 79.9945 125.42 79.9945C125.42 79.9945 124.18 77.2334 123.8 76.423C123.37 75.6027 123.59 75.8928 122.46 74.7923C121.34 73.6618 121.56 74.192 120.93 73.3417C120.33 72.5613 120.83 72.7314 120.73 72.2412C120.63 71.711 121.04 70.4004 118.49 68.9798C115.93 67.5192 117.57 68.3695 116.04 67.4191C114.5 66.5287 116.04 67.4191 115.22 66.3186C114.41 65.1882 114.9 65.2882 114.71 64.2678C114.51 63.2773 114.61 63.7675 113.8 63.5574C112.98 63.3474 113.39 64.0577 113.29 64.3778C113.18 64.6979 112.68 65.1882 112.37 65.4082C112.07 65.6183 111.25 66.2186 110.53 66.2186H109.43C108.72 66.2186 108.64 66.1486 108.64 66.1486C108.51 66.2586 107.91 66.9989 108.09 67.6392C108.3 68.3495 109.01 67.7393 109.63 67.8493C110.25 67.9594 110.25 67.8493 111.07 67.9594C111.61 68.026 112.047 68.0961 112.38 68.1694C112.89 68.2295 112.59 69.5801 112.38 70.1903C112.17 70.8206 111.46 71.1107 111.46 71.1107L111.36 73.1616L110.26 74.4722C110.26 74.4722 108.42 74.9024 107.91 74.9024C107.4 74.9024 106.69 75.6027 105.76 76.1029C104.85 76.6331 104.14 76.9132 102.7 77.3334C101.27 77.7236 101.27 78.4339 100.37 78.9641C99.45 79.4643 95.57 83.256 95.57 83.256H94.65C94.65 83.256 93.84 83.366 93.43 83.6461C93.02 83.9663 92.92 84.5665 92.92 84.5665L93.73 85.3068C93.73 85.3068 92.62 91.2994 92.51 91.6196C92.43 91.9397 91.5 94.881 91.19 95.7914C90.89 96.7118 91.11 96.4016 90.8 97.322C90.48 98.2324 90.8 97.322 90.29 97.8523C89.78 98.3425 89.97 97.8523 88.45 98.4525C86.91 99.0628 87.94 98.5526 86.1 98.2424C84.27 97.9223 86.1 98.2424 85.19 98.2424C84.28 98.2424 85.08 98.7727 85.08 99.0628C85.08 99.3829 84.68 99.6931 84.27 100.193C83.87 100.683 83.97 101.324 84.06 101.924C84.17 102.524 84.06 101.924 84.47 103.135C84.88 104.375 84.37 104.475 84.17 105.185C83.97 105.896 84.17 105.185 83.76 105.396C83.36 105.576 83.76 106.816 83.76 106.816L83.05 108.557L82.84 110.078C82.84 110.078 83.17 110.788 83.17 111.318C83.17 111.818 83.06 111.918 83.06 111.918C83.06 111.918 82.85 112.309 82.44 112.729C82.03 113.159 82.44 114.069 82.74 114.469C83.06 114.86 83.25 114.86 84.18 115.78C85.09 116.7 84.48 116.91 84.58 117.721C84.69 118.541 84.28 119.041 83.88 119.892C83.47 120.672 83.26 120.802 82.96 121.412C82.64 122.013 81.82 123.253 81.33 124.074C80.82 124.884 80.71 125.064 80.2 125.874C79.71 126.685 79.71 127.435 79.28 127.825C78.89 128.245 76.95 129.876 75.43 131.007C73.9 132.107 64.2 138.13 64.2 138.13L59.31 139.87L57.57 141.601C57.57 141.601 54.4 144.542 53.9 144.863C53.39 145.183 50.84 148.124 50.84 148.124C50.84 148.124 50.63 148.734 50.43 149.365C50.24 149.965 49.6 150.675 49.22 151.385C48.79 152.096 48.4 152.726 47.98 153.016C47.59 153.336 47.16 153.116 46.86 153.336C46.56 153.546 45.34 153.936 44.93 154.147C44.53 154.357 43.31 154.857 42.9 155.347C42.5 155.877 40.76 157.198 40.76 157.198L38 157.728C38 157.728 37.51 158.929 37.18 159.039C36.88 159.139 33.52 160.879 33.01 161.09C32.5 161.27 31.79 162.01 31.08 162.29C30.35 162.61 30.46 163 30.16 163.21C29.86 163.421 30.16 164.951 30.06 165.371C29.95 165.762 29.14 165.371 29.14 165.371C29.14 165.371 27.7 164.451 27.42 164.451C27.1 164.451 26.89 164.631 26.89 164.631L25.69 165.061L25.59 167.212L24.97 167.292L24.16 166.692C24.16 166.692 22.94 166.192 22.32 166.192L21.5 167.112C21.5 167.112 20.8 166.902 20.49 166.692C20.17 166.482 19.36 166.792 19.36 166.792L19.46 168.923L18.15 168.033L17.34 167.822C17.34 167.822 16.61 168.103 16.61 168.423C16.61 168.743 16.91 169.033 16.91 169.033L17.52 169.243C18.15 169.453 18.35 170.164 18.35 170.484C18.35 170.484 18.15 170.864 17.62 171.294C17.13 171.684 16.91 171.894 16.91 171.894L16.5 171.474L15.59 171.084C14.68 170.694 14.68 171.084 14.68 171.084V172.324C14.68 172.324 14.25 172.394 13.76 172.324C13.25 172.184 13.76 172.324 13.87 171.574C13.95 170.864 13.87 171.084 13.76 170.544C13.66 170.053 13.04 170.364 12.54 170.364C12.04 170.364 12.03 171.394 11.11 171.784C10.19 172.174 10.29 172.495 9.67 173.025C9.07 173.515 8.66 173.625 8.66 173.625C8.66 173.625 4.38 177.597 3.55 177.907C2.74 178.197 2.32 178.827 1.82 179.047C1.31 179.227 1.11 179.938 0.68 180.358C0.27 180.748 0.48 181.178 0.48 181.178C0.48 181.178 0.89 181.178 1.49 181.068C2.11 180.968 2 180.678 2.41 180.468C2.84 180.258 2.92 179.648 3.22 179.227C3.54 178.837 3.33 178.617 3.65 178.307C3.93 178.027 4.36 177.597 4.36 177.597C4.36 177.597 7.01 176.886 7.92 176.386C8.84 175.856 8.02 175.966 8.43 175.356C8.84 174.755 10.47 175.146 10.47 175.146C10.47 175.146 11.5 175.256 12.01 175.256C12.52 175.256 12.01 175.756 11.91 176.386C11.81 176.996 11.91 177.487 11.91 177.487L10.58 177.587C10.58 177.587 10.38 178.197 10.78 178.617C11.2 179.047 10.78 178.617 12.32 178.617C13.86 178.617 12.94 178.517 13.43 178.297C13.94 178.117 14.24 177.697 14.87 177.487C15.49 177.307 15.88 176.286 16.09 175.966C16.3 175.646 16.09 175.356 16.3 174.936C16.49 174.545 17 174.115 17.41 173.835C17.82 173.515 19.56 171.784 19.86 171.284C20.16 170.754 20.37 171.074 20.99 171.074C21.61 171.074 22.41 170.754 23.44 170.264C24.47 169.773 23.74 169.833 24.25 169.653C24.76 169.453 25.88 169.453 26.7 169.333C27.52 169.233 27.21 168.523 28.14 167.812C29.06 167.102 28.95 166.782 29.77 166.472C30.58 166.182 30.68 166.182 31.29 166.082C31.91 165.982 31.91 165.762 32.61 164.341C33.32 162.89 33.32 163.421 33.94 162.89C34.56 162.39 34.56 162.89 35.46 163.21C36.38 163.531 35.46 163.211 35.97 163.531C36.48 163.811 36.28 164.241 36.28 164.241C36.28 164.241 36.7 164.031 37.09 163.631C37.52 163.21 37.41 162.89 37.82 162.6C38.22 162.28 38.22 162.6 39.24 162.6C40.26 162.6 39.64 162.18 39.86 161.79C40.07 161.36 40.18 161.18 40.46 161.18C40.79 161.18 40.89 161.18 41.81 161.47C42.71 161.79 42.62 162.28 43.01 162.71C43.43 163.09 43.52 163.621 43.93 164.021C44.34 164.441 44.34 163.811 44.44 163.411C44.55 162.99 44.55 162.18 45.07 162C45.58 161.79 46.08 162.28 46.08 162.28C46.08 162.28 47 163.09 47.19 163.411C47.4 163.741 46.59 163.621 46.3 163.741C45.99 163.801 46.09 164.231 46.09 164.231C46.09 164.231 47.82 164.121 48.83 164.231C49.86 164.331 48.83 164.721 48.83 165.471C48.83 166.172 48.63 165.852 48.44 166.172C48.24 166.462 48.12 166.562 48.12 166.562C48.12 166.562 49.04 166.562 49.46 166.672C49.85 166.772 48.74 167.802 48.43 168.193C48.11 168.613 47.4 168.903 46.89 169.003C46.38 169.103 46.49 169.213 46.08 169.433C45.67 169.633 45.47 169.923 45.07 170.344C44.66 170.734 45.78 171.444 45.78 171.444V173.285C45.78 173.605 46.08 173.715 45.27 174.315C44.45 174.926 44.76 174.425 44.45 175.026C44.15 175.636 44.45 175.026 44.45 175.456C44.45 175.836 45.37 177.197 45.79 177.577C46.19 178.007 46.19 177.477 46.7 177.297C47.19 177.086 46.9 176.766 47.41 176.366C47.92 175.946 48.12 176.046 48.55 176.046C48.93 176.046 48.55 176.856 48.55 177.287C48.55 177.547 48.4067 177.947 48.12 178.487C47.73 179.297 47.41 179.297 47.41 179.297L48.93 179.728C48.93 179.728 48.33 179.908 48.02 180.228C47.73 180.548 47.31 181.038 47.31 181.038C47.31 181.038 46.9 181.148 46.19 181.248C45.48 181.348 45.28 181.458 44.87 181.749C44.46 182.069 44.57 182.669 44.46 182.989C44.36 183.269 43.45 184.19 43.45 184.19C43.45 184.19 44.97 185.32 45.28 185.54C45.58 185.75 47.02 186.03 47.02 186.03C47.02 186.641 47.42 187.061 47.42 187.061C47.42 187.061 47.93 187.591 48.75 187.881C49.56 188.201 49.37 187.881 49.86 187.591C50.37 187.271 50.78 186.461 51.1 185.75C51.4 185 51.49 185.43 51.49 185.43C51.49 185.43 52.11 185.81 52.52 186.14C52.94 186.461 53.03 186.671 53.63 186.741C54.25 186.851 54.04 186.741 54.36 186.681C54.66 186.571 55.17 186.04 55.67 185.75C56.18 185.43 56.18 185.32 56.59 185.12C57.02 184.91 57.92 185.01 58.43 185.33C58.94 185.65 58.43 185.33 59.46 185.94C60.48 186.571 59.46 185.94 60.17 185.65C60.88 185.33 60.88 185.44 61.8 185.44C62.72 185.44 62.31 186.681 62.31 186.681C62.31 186.681 62.1 187.281 61.5 187.591C60.87 187.881 60.58 187.491 60.06 187.491C59.54 187.491 58.94 188.481 58.94 188.481C58.94 188.481 56.91 190.532 56.59 190.932C56.29 191.353 56.18 191.683 55.99 192.063C55.78 192.493 55.88 192.553 55.88 193.303C55.88 194.054 56.09 194.514 56.69 194.194C57.3 193.914 56.69 193.484 56.9 192.883C57.1 192.273 57.2 192.273 57.82 192.173C58.42 192.063 57.82 192.173 58.31 192.273C58.82 192.373 58.82 192.483 58.82 192.483C58.82 192.483 60.97 194.004 61.37 194.324C61.78 194.614 61.78 195.314 61.78 195.314L61.27 195.524C61.27 195.524 60.56 197.375 60.56 197.865C60.56 198.396 60.76 198.396 61.88 198.676C63 198.996 62.08 197.966 62.19 197.575C62.29 197.155 62.29 196.655 62.49 196.235C62.7 195.845 63.62 196.725 64.43 197.155C65.25 197.575 65.55 198.576 65.47 198.996C65.36 199.386 64.43 199.386 64.43 199.386C64.43 199.386 64.03 200.517 62.59 200.517C61.15 200.517 61.88 200.517 61.27 200.627C60.66 200.727 60.97 201.227 60.97 201.227C60.97 201.227 60.56 202.467 60.15 202.858C59.75 203.278 59.44 203.988 59.44 203.988C59.44 203.988 60.86 205.939 60.76 206.439C60.67 206.939 60.27 206.859 59.56 207.039C58.83 207.25 58.83 207.47 58.23 207.86C57.61 208.28 57.71 207.86 56.58 207.57C55.47 207.25 56.58 207.149 56.79 205.419C57 203.678 56.28 205.739 56.28 205.739L54.55 205.139C52.81 204.528 54.14 204.808 53.74 203.788C53.33 202.798 53.43 202.758 53.43 202.057C53.43 201.357 52.11 202.267 51.59 202.057C51.1 201.857 51.59 202.057 50.67 201.457C49.75 200.847 49.96 200.647 49.96 200.647L47.63 201.557C45.28 202.477 47.63 201.557 47.12 201.557C46.61 201.557 46.82 201.767 46.5 201.947C46.19 202.157 46.19 202.698 46.19 202.978C46.19 203.298 46.7 204.428 47.63 204.718C48.55 205.039 47.63 204.718 48.64 204.218C49.65 203.688 48.56 203.508 48.56 203.508C48.56 203.508 47.53 202.978 48.24 202.267C48.94 201.557 48.24 202.267 48.94 201.847C49.65 201.457 50.18 201.847 50.18 201.847C50.18 201.847 51 203.298 51.1 203.608C51.18 203.898 52.52 204.428 52.52 204.428C52.52 204.428 52.72 205.239 53.14 205.319C53.55 205.419 53.85 206.229 54.86 207.049C55.89 207.87 54.45 207.159 54.15 207.159C53.85 207.159 53.44 207.049 52.01 207.049C50.58 207.049 52.01 207.049 51.5 207.87C51.01 208.68 51.5 207.87 50.58 208.5C49.66 209.11 51.11 209.801 51.11 209.801L51.6 209.911C51.6 209.911 52.22 211.431 52.92 212.462C53.65 213.492 53.54 212.362 54.26 211.541C54.97 210.731 54.26 211.541 54.86 211.331C55.49 211.151 55.49 211.331 57.11 211.431C58.76 211.531 58.14 211.751 58.95 212.142C59.77 212.562 58.95 213.382 58.95 214.193C58.95 215.003 58.44 214.293 58.14 214.403C57.84 214.503 57.41 214.403 55.89 214.193C54.37 213.982 55.89 214.193 55.27 213.872C54.66 213.582 54.56 214.503 54.56 214.503L54.97 215.213L55.37 216.844C55.37 216.844 55.88 217.444 56.49 218.464C57.11 219.495 56.29 218.895 55.78 219.175C55.27 219.495 55.78 219.175 55.88 219.985C55.99 220.805 55.88 219.985 56.18 219.885C56.49 219.785 56.18 220.415 56.8 220.915C57.4 221.416 56.09 223.146 56.09 223.146L55.47 223.467H53.02C51.58 223.467 52.71 223.957 52.2 224.077C51.69 224.177 51.58 223.687 51.58 223.687L50.77 223.156C50.77 223.156 50.06 222.976 48.43 222.236C46.81 221.526 48.43 222.236 48.11 222.236C47.81 222.236 47.72 222.986 47.4 223.587C47.1 224.187 47.19 224.187 47.19 224.717C47.19 225.217 47.11 225.928 47.11 225.928C47.11 225.928 46.6 226.538 46.49 226.958C46.4167 227.218 46.28 227.455 46.08 227.668C45.78 227.988 45.88 228.199 44.96 228.599C44.05 228.979 45.37 229.089 45.99 229.409C46.6 229.729 46.38 229.199 46.89 228.799C47.4 228.379 47.19 228.479 47.4 227.278C47.61 226.038 47.61 226.748 47.91 226.468C48.22 226.148 48 225.717 48 224.627C48 223.537 48.42 224.097 48.73 224.097C49.04 224.097 49.63 224.307 49.63 224.307L50.06 224.417C50.46 224.517 50.27 225.227 50.87 225.507C51.48 225.838 51.99 225.657 52.8 225.657C53.61 225.657 53.72 225.127 54.34 224.807C54.95 224.517 55.76 225.227 55.76 225.227L56.75 225.017L57.28 227.288L58.17 229.769C59.06 232.24 58.17 229.769 59.77 231.37C61.34 232.961 59.77 232.07 59.77 232.07C59.77 232.07 59.77 232.961 60.13 233.671C60.48 234.381 61.34 235.582 61.34 235.582C61.34 235.582 62.05 235.942 62.94 236.112C63.81 236.292 63.65 236.292 65.94 237.533C68.24 238.773 67.18 238.593 67.18 238.593C67.18 238.593 66.47 238.773 65.58 238.773C64.69 238.773 64.69 238.243 64.34 237.713C63.98 237.182 64.34 237.713 61.88 236.822C59.42 235.942 60.99 236.822 60.31 236.822C59.63 236.822 60.31 236.822 59.25 236.642C58.19 236.462 59.25 236.642 59.25 235.082C59.25 233.521 59.25 235.082 58.89 234.371C58.54 233.661 58.89 234.371 58.18 234.511C57.47 234.721 58.18 234.511 57.29 235.222C56.4 235.932 56.58 236.112 56.58 236.112C56.58 236.112 56.76 237.002 57.47 237.533C58.18 238.063 58.36 238.063 58.36 238.063L59.42 238.423C59.42 238.423 58.53 239.483 57.47 240.544C56.41 241.604 57.47 240.544 56.58 240.724C55.69 240.904 56.58 240.724 55.36 240.194C55.36 240.194 55.52 241.434 55.7 242.495C55.88 243.525 55.7 242.495 55.52 243.165C55.36 243.875 55.87 244.225 57.12 245.826C58.36 247.427 57.83 246.006 58.89 246.006C59.95 246.006 60.31 245.646 60.31 245.646L60.48 244.756C60.65 243.865 60.48 244.756 59.43 244.576C58.37 244.396 59.61 243.865 59.96 243.015C60.32 242.125 59.96 243.015 60.48 241.955C60.99 240.894 60.48 241.955 59.78 241.244C59.07 240.534 59.6 240.354 59.6 240.354L60.13 239.473C60.64 238.583 61.17 239.473 62.76 239.473C64.35 239.473 63.47 239.654 63.98 239.834C64.51 240.004 65.4 240.884 66.11 241.244C66.82 241.604 67 241.604 67.53 241.604H68.24C68.24 241.604 69.1 242.315 70.52 243.165C71.71 243.945 71.27 244.306 71.11 244.406C71.35 244.225 73.73 242.985 74.4 242.675C75.07 242.315 76.67 242.315 78.05 242.465C78.26 242.255 78.49 241.975 78.63 241.614C78.98 240.724 79.34 241.254 80.21 240.904L80.13 240.934Z" stroke="var(--stroke-0, #251E1C)" stroke-width="0.75"/>
<path id="Vector_8" d="M136.76 53.0929C136.76 52.2826 136.51 52.4226 135.94 52.0625C135.38 51.7023 134.91 51.7023 134.02 51.032C133.12 50.3617 133.89 50.3618 133.45 49.3313C132.99 48.3009 132.76 49.7915 132.42 49.7915C132.08 49.7915 131.97 49.7915 129.21 49.6915C126.48 49.5514 128.54 49.9015 127.41 49.6915C126.28 49.4414 127.41 49.6915 127.07 48.8811C126.73 48.0608 127.07 48.3109 128.08 46.9303L127.48 45.2996C127.3 45.1995 127.01 45.0194 126.27 44.7693C124.78 44.3091 125.45 43.8589 124.89 42.6084C124.32 41.3679 124.89 41.688 124.54 40.9077C124.2 40.0873 124.54 40.9077 121.36 40.0873C118.16 39.307 118.86 40.1974 116.68 40.3374C114.52 40.4375 115.89 40.3374 115.08 40.5475C114.78 40.6476 114.6 40.6876 114.46 40.7876L115.17 41.5379C115.45 41.618 115.74 41.8181 116.1 41.8181C116.79 41.8181 116.9 41.9281 117.93 42.0281C118.96 42.1382 118.03 43.0586 118.03 43.0586L117.36 43.8489C117.36 43.8489 116.44 44.6593 116.33 45.2295C116.23 45.7898 117 45.3296 118.84 45.3296C120.68 45.3296 119.17 45.7898 119.41 46.26C119.62 46.7202 119.75 47.2904 120.08 47.7406C120.43 48.2008 120.08 49.5514 119.87 50.0116C119.63 50.4718 118.72 50.942 118.28 51.042C117.82 51.1421 118.28 51.042 117.25 51.042C116.22 51.042 116.22 51.1421 115.65 51.5022C115.06 51.8224 114.27 52.5327 113.81 53.4531C113.34 54.3435 113.7 55.1538 113.7 55.1538C113.7 55.1538 114.94 55.7241 116.32 55.9342C117.68 56.1743 116.99 55.8241 118.48 55.1538C119.96 54.4435 120.74 53.313 121.56 52.9929C122.35 52.6327 122.12 53.0929 124.39 53.203C126.69 53.313 125.08 53.1029 125.77 52.8828C126.44 52.6427 126.57 52.9929 127.6 53.0929C128.61 53.193 127.6 53.0929 129.65 53.6632C131.69 54.2334 129.65 53.6632 129.65 54.1234C129.65 54.5836 129.52 55.0438 129.17 55.3639C128.85 55.7241 128.5 55.7241 128.04 55.7241H126.91C126.44 55.7241 124.64 55.8241 123.82 56.0842C123.04 56.2943 123.38 57.885 123.38 57.885L124.98 58.7054C126.58 59.4857 125.2 59.3756 125.2 59.7358C125.2 60.0559 125.2 61.1864 124.74 62.0068C124.28 62.8171 124.17 61.6466 123.71 60.9763C123.25 60.296 123.14 61.4365 123.04 62.0068C122.94 62.567 122.58 62.8171 122.23 63.1373C121.89 63.4974 122.23 63.9476 122.69 64.738C123.15 65.5483 122.46 65.8685 122.23 66.5788C122.02 67.249 122.23 67.5692 123.26 68.2795C124.29 68.9498 124.39 68.0394 125.31 67.5692C126.23 67.149 126.34 67.3591 127.13 67.149C127.93 66.8989 127.6 66.0085 128.16 65.1982C128.73 64.3878 129.07 63.3974 129.07 63.3974L131.02 61.3365C131.02 61.3365 131.93 61.1964 132.5 61.1964C133.07 61.1964 132.5 61.1964 132.95 61.1964C133.4 61.1964 133.84 60.9863 133.98 58.8254C134.1 56.6645 131.59 58.8254 130.35 57.795C129.07 56.7645 130.35 57.0246 130.56 56.0942C130.79 55.1738 131.7 54.7136 132.83 54.7136C133.96 54.7136 134.88 54.7136 136.6 54.4635C138.33 54.2534 136.73 53.9033 136.73 53.1229L136.76 53.0929Z" stroke="var(--stroke-0, #251E1C)" stroke-width="0.75"/>
<path id="Vector_9" d="M147.81 41.8281C146.89 41.1278 146.89 41.688 145.29 41.0177L141.87 41.768C141.79 42.1582 141.57 42.5784 141.53 42.7185C141.43 43.0686 140.4 43.2887 139.93 43.1887C139.47 43.0786 139.24 42.8285 139.24 42.8285C139.24 42.8285 138.9 42.8285 138.21 43.0686C137.52 43.2787 137.77 43.7389 137.52 47.8507C137.31 51.9724 138.11 47.8507 138.8 47.7506C139.47 47.6506 140.15 46.7202 140.15 46.7202C140.15 46.7202 140.15 45.7998 140.5 44.7693C140.84 43.7389 142.1 45.6897 142.1 45.6897C142.1 45.6897 142.79 44.8794 142.89 44.3091C143 43.7389 143.8 42.9686 144.36 42.7084C144.92 42.4984 145.06 43.989 146.87 44.6593C148.69 45.3296 146.87 44.6593 147.66 44.5592C148.46 44.4492 148.46 43.6388 148.82 42.9586C149.16 42.2482 148.69 42.4883 147.79 41.8181L147.81 41.8281Z" stroke="var(--stroke-0, #251E1C)" stroke-width="0.75"/>
<path id="Vector_10" d="M104.39 56.1741C104.39 56.1741 104.62 57.9841 105.77 57.7741C106.91 57.5241 107.58 56.4941 107.58 56.4941C107.58 56.4941 104.74 55.1541 104.39 56.1741Z" stroke="var(--stroke-0, #251E1C)" stroke-width="0.75"/>
<!-- 拠点ドット：パルスリング -->
<circle cx="309.5" cy="70.49" r="5" fill="none" stroke="#251E1C" stroke-width="0.5">
  <animate attributeName="r" from="5" to="16" dur="2.5s" repeatCount="indefinite"/>
  <animate attributeName="opacity" from="0.5" to="0" dur="2.5s" repeatCount="indefinite"/>
</circle>
<!-- 拠点ドット：固定リング -->
<circle cx="309.5" cy="70.49" r="8" fill="none" stroke="#251E1C" stroke-width="0.4" opacity="0.25"/>
<!-- 拠点ドット：中心 -->
<circle cx="309.5" cy="70.49" r="2.5" fill="#251E1C"/>
</g>
<defs>
<clipPath id="clip0_0_4">
<rect width="335.77" height="273.988" fill="white"/>
</clipPath>
</defs>
</svg>
