<?xml version="1.0" encoding="UTF-8"?><svg id="_レイヤー_2" xmlns="http://www.w3.org/2000/svg" viewBox="0 0 380.48 66.17"><defs><style>.cls-1{fill:#251e1c;}.cls-2{fill:#312c2a;}</style></defs><g id="_レイヤー_1-2"><path class="cls-2" d="M74.09,61.6c-15.95,0-18.73-18.12-29.54-18.12s-13.59,18.12-29.54,18.12c-5.19,0-9.14-2.16-12.16-5.02-.1-.09-.22-.14-.34-.14H.55c-.3,0-.55.27-.55.6v8.51c0,.33.24.6.55.6h88.1c.3,0,.55-.27.55-.6v-8.51c0-.33-.24-.6-.55-.6h-2.05c-.13,0-.25.05-.34.14-3.02,2.85-6.97,5.02-12.16,5.02Z"/><path class="cls-2" d="M89.19,7.25c0-.93-.83-1.64-1.75-1.5L.47,19.31C.2,19.35,0,19.6,0,19.9v8.59c0,.33.24.6.55.6h1.96c.13,0,.25-.05.34-.14,3.02-2.85,6.97-5.02,12.16-5.02,15.95,0,18.73,18.12,29.54,18.12s13.59-18.12,29.54-18.12c5.19,0,9.14,2.16,12.16,5.02.1.09.22.14.34.14h2.05c.3,0,.55-.27.55-.6V7.25Z"/><path class="cls-2" d="M23.36,28.62c-.23-.25-.6-.24-.81.03-2.28,3.04-2.09,7.54.52,10.34,2.61,2.79,6.7,2.88,9.4.3.24-.23.24-.65,0-.89l-9.13-9.77Z"/><path class="cls-2" d="M61.15,54.37c.64.57,1.31,1.08,2.01,1.57.09.06.2.1.31.1h21.11c.48-.34.97-.65,1.42-1.04.19-.17.3-.41.45-.62h-25.29Z"/><path class="cls-2" d="M66.13,57.66c1.88.88,3.94,1.45,6.22,1.67h3.71c2.08-.21,4.01-.78,5.81-1.67h-15.74Z"/><path class="cls-2" d="M58,51.07c.47.57.92,1.14,1.42,1.67h27.59s.02-.07.02-.11v-1.56h-29.03Z"/><path class="cls-2" d="M86.42,41.56c-.6-.09-1.18-.08-1.87-.08-2.28,0-3.84.61-5.2,1.39h7.68v-.79c0-.18-.07-.33-.26-.41-.09-.04-.18-.09-.35-.11Z"/><path class="cls-2" d="M76.98,44.49c-.1,0-.19.03-.28.09-.95.63-1.98,1.2-3.22,1.58h13.55v-1.67h-10.05Z"/><path class="cls-2" d="M55.55,47.78c.38.57.77,1.12,1.17,1.66h30.31v-1.66h-31.48Z"/><path class="cls-2" d="M66.1,46.16c-1.93-.43-3.66-1.07-5.52-1.64-.05-.02-.1-.02-.15-.02h-6.93c.33.57.68,1.11,1.02,1.67h11.59Z"/><path class="cls-2" d="M377.64,28.25c.79,0,1.45.27,2.01.81.55.54.83,1.21.83,2.03s-.28,1.49-.83,2.03c-.55.54-1.22.81-2.01.81s-1.46-.27-2.01-.81c-.55-.54-.83-1.22-.83-2.03s.28-1.49.83-2.03c.55-.54,1.22-.81,2.01-.81Z"/><path class="cls-2" d="M135.31,19.94c0-2.11-.74-3.17-2.24-3.17-.53,0-.95.09-1.28.28-.33.19-.58.43-.75.72-.17.3-.29.63-.35,1-.06.37-.09.73-.09,1.07,0,.31,0,.57.02.77.02.2.04.38.07.54-1.15-.25-2.22-.48-3.22-.7-.99-.22-2-.4-3.03-.56.13-.99.44-1.81.93-2.45.5-.64,1.11-1.13,1.84-1.49.73-.36,1.53-.61,2.4-.75.87-.14,1.73-.21,2.56-.21.99,0,2,.08,3.03.25,1.02.17,1.95.47,2.77.89.82.42,1.5.98,2.02,1.68.53.7.79,1.58.79,2.63,0,.56-.02,1.18-.05,1.87-.03.68-.05,1.36-.07,2.02-.02.67-.04,1.3-.07,1.91s-.05,1.11-.05,1.52c0,.68.13,1.3.37,1.86.25.56.78.84,1.59.84.53,0,1-.14,1.42-.42.42-.28.82-.59,1.19-.93l.75.84c-.38.31-.78.7-1.24,1.16s-.92.9-1.4,1.3c-.48.41-.99.75-1.51,1.05s-1.07.44-1.63.44c-.78,0-1.54-.28-2.28-.84-.75-.56-1.38-1.1-1.91-1.63-1.15.72-2.36,1.3-3.63,1.77-1.27.47-2.59.7-3.96.7-.65,0-1.3-.11-1.93-.33-.64-.22-1.2-.52-1.7-.91-.5-.39-.89-.85-1.19-1.38-.3-.53-.44-1.08-.44-1.68,0-1.49.4-2.65,1.21-3.47.81-.82,1.82-1.44,3.05-1.87,1.22-.42,2.56-.67,3.99-.77,1.43-.09,2.76-.14,4-.14v-3.45ZM129.02,28.05c0,.96.28,1.72.84,2.26.56.55,1.33.82,2.33.82.56,0,1.11-.09,1.65-.28.54-.19,1.04-.48,1.47-.89-.03-.43-.05-.84-.07-1.21-.02-.38-.02-.76-.02-1.17,0-.43,0-.85.02-1.26.02-.41.04-.82.07-1.26-.43-.06-.85-.11-1.23-.14-.39-.03-.8-.05-1.24-.05-.93,0-1.8.26-2.61.79-.81.53-1.21,1.32-1.21,2.37Z"/><path class="cls-2" d="M167.37,17.99c1.08-.93,2.17-1.66,3.26-2.19,1.09-.53,2.31-.79,3.68-.79,1.89,0,3.39.53,4.49,1.61,1.1,1.07,1.66,2.51,1.66,4.31v8.76c0,.56.09,1.02.28,1.38.19.36.43.64.72.84s.62.34.98.42c.36.08.72.11,1.1.11v.93c-.65-.03-1.39-.07-2.21-.12-.82-.05-2.04-.07-3.66-.07-1.52,0-2.72.02-3.59.05-.87.03-1.57.08-2.1.14v-.93c.34,0,.69-.04,1.05-.11.36-.08.67-.22.96-.42.28-.2.51-.48.7-.84s.28-.82.28-1.38v-8.66c0-.9-.35-1.63-1.03-2.19-.68-.56-1.57-.84-2.65-.84-.75,0-1.45.17-2.12.51-.67.35-1.27.78-1.79,1.3v9.88c0,.56.09,1.02.28,1.38.19.36.43.64.72.84s.62.34.98.42c.36.08.71.11,1.05.11v.93c-.31-.03-.64-.05-.98-.07-.34-.02-.74-.03-1.19-.05s-.97-.03-1.56-.05c-.59-.02-1.29-.02-2.1-.02-1.52,0-2.72.02-3.61.05-.88.03-1.65.08-2.31.14v-.93c.4,0,.8-.04,1.19-.11.39-.08.73-.22,1.03-.42.29-.2.53-.48.72-.84.19-.36.28-.82.28-1.38v-10.67c0-1.55-1.03-2.33-3.08-2.33v-.93c1.52-.06,3.04-.13,4.57-.21,1.52-.08,2.86-.26,4.01-.53v2.98Z"/><path class="cls-2" d="M219.55,28.28c0,.66.03,1.22.09,1.71.06.48.22.88.47,1.19.25.31.64.55,1.17.7.53.16,1.26.23,2.19.23v.93c-.84,0-1.71.02-2.61.05-.9.03-1.76.07-2.59.12-.82.05-1.58.1-2.26.16s-1.26.13-1.73.19v-1.82c-1.08.65-2.15,1.18-3.19,1.59-1.04.4-2.23.61-3.56.61s-2.61-.24-3.7-.7c-1.1-.47-2.05-1.12-2.84-1.96-.79-.84-1.4-1.84-1.82-3-.42-1.17-.63-2.43-.63-3.8,0-1.49.31-2.83.93-4.01.62-1.18,1.44-2.17,2.45-2.98,1.01-.81,2.17-1.42,3.47-1.84,1.3-.42,2.66-.63,4.05-.63.41,0,1.08.13,2.03.39.95.27,1.81.63,2.59,1.1V4.28c0-.8-.27-1.4-.79-1.77-.53-.37-1.44-.56-2.75-.56v-.93c1.77-.06,3.43-.17,4.99-.33,1.55-.16,2.9-.39,4.05-.7v28.28ZM214.29,20.27c-.5-.99-1.03-1.79-1.61-2.4-.57-.6-1.45-.91-2.63-.91-1.05,0-1.92.22-2.59.65-.67.44-1.19.99-1.59,1.68-.39.68-.65,1.45-.79,2.31-.14.86-.21,1.7-.21,2.54,0,.75.07,1.55.21,2.4.14.85.39,1.63.75,2.33.36.7.84,1.28,1.44,1.75.61.47,1.38.7,2.31.7,1.27,0,2.3-.29,3.08-.88s1.32-1.33,1.63-2.24v-7.92Z"/><path class="cls-2" d="M262.26,17.15v11.55c0,.56.07,1.05.21,1.47.14.42.41.78.79,1.07s.93.54,1.61.75c.68.2,1.59.35,2.7.44v.93c-1.24-.06-2.47-.11-3.68-.14-1.21-.03-2.44-.05-3.68-.05s-2.47.02-3.68.05c-1.21.03-2.44.08-3.68.14v-.93c.93,0,1.68-.08,2.24-.25.56-.17.99-.42,1.28-.75.3-.33.48-.72.56-1.19.08-.47.12-.99.12-1.59v-11.51h-2.8l.38-1.4h2.42v-5.12c0-1.34.19-2.64.58-3.92.39-1.27.96-2.4,1.7-3.4.74-.99,1.67-1.79,2.77-2.4,1.1-.61,2.35-.91,3.75-.91,1.87,0,3.39.39,4.59,1.16,1.2.78,1.8,1.91,1.8,3.4,0,.81-.23,1.4-.68,1.77s-1.05.56-1.79.56c-.4,0-.76-.04-1.07-.12-.31-.08-.62-.18-.93-.3-.03-1.8-.19-3.1-.47-3.89-.28-.79-.92-1.19-1.91-1.19-.56,0-1.03.15-1.42.44-.39.3-.71.67-.96,1.14-.25.47-.43,1-.56,1.59-.13.59-.19,1.16-.19,1.73v9.46h5.96v1.4h-5.96Z"/><path class="cls-2" d="M291.33,24.42c0,1.96.55,3.56,1.66,4.82,1.1,1.26,2.66,1.88,4.68,1.88,1.08,0,2.15-.23,3.19-.7,1.04-.47,1.92-1.13,2.64-2l1.12,1.21c-1.21,1.37-2.63,2.42-4.24,3.17-1.62.74-3.31,1.12-5.08,1.12-1.52,0-2.89-.23-4.1-.68-1.21-.45-2.25-1.08-3.12-1.91-.87-.82-1.54-1.82-2-2.98-.47-1.16-.7-2.46-.7-3.89s.23-2.73.7-3.89c.47-1.16,1.13-2.16,2-2.98.87-.82,1.91-1.46,3.12-1.91,1.21-.45,2.57-.67,4.1-.67s2.8.24,3.94.72c1.13.48,2.1,1.15,2.89,2.01.79.85,1.41,1.85,1.84,3,.43,1.15.71,2.38.84,3.68h-13.47ZM297.25,22.65c.62,0,1.04-.08,1.26-.24.22-.15.33-.51.33-1.07,0-1.37-.28-2.47-.84-3.31-.56-.84-1.52-1.26-2.89-1.26-.72,0-1.31.19-1.79.58-.48.39-.87.88-1.17,1.47-.29.59-.5,1.23-.63,1.91-.13.68-.19,1.32-.19,1.91h5.92Z"/><path class="cls-2" d="M323.89,24.42c0,1.96.55,3.56,1.66,4.82,1.1,1.26,2.66,1.88,4.68,1.88,1.08,0,2.15-.23,3.19-.7,1.04-.47,1.92-1.13,2.64-2l1.12,1.21c-1.21,1.37-2.63,2.42-4.24,3.17-1.62.74-3.31,1.12-5.08,1.12-1.52,0-2.89-.23-4.1-.68-1.21-.45-2.25-1.08-3.12-1.91-.87-.82-1.54-1.82-2-2.98-.47-1.16-.7-2.46-.7-3.89s.23-2.73.7-3.89c.47-1.16,1.13-2.16,2-2.98.87-.82,1.91-1.46,3.12-1.91,1.21-.45,2.57-.67,4.1-.67s2.8.24,3.94.72c1.13.48,2.1,1.15,2.89,2.01.79.85,1.41,1.85,1.84,3,.43,1.15.71,2.38.84,3.68h-13.47ZM329.81,22.65c.62,0,1.04-.08,1.26-.24.22-.15.33-.51.33-1.07,0-1.37-.28-2.47-.84-3.31-.56-.84-1.52-1.26-2.89-1.26-.72,0-1.31.19-1.79.58-.48.39-.87.88-1.17,1.47-.29.59-.5,1.23-.63,1.91-.13.68-.19,1.32-.19,1.91h5.92Z"/><path class="cls-2" d="M359.34,29.68c0,1.12.34,1.86,1.03,2.21.68.36,1.48.53,2.37.53v.93c-.4-.03-.81-.05-1.21-.07-.41-.02-.84-.03-1.3-.05s-.99-.03-1.59-.05c-.59-.02-1.29-.02-2.1-.02-1.52,0-2.73.02-3.63.05-.9.03-1.71.08-2.42.14v-.93c.87,0,1.65-.18,2.33-.53s1.02-1.1,1.02-2.21V4.85c0-1.09-.25-1.84-.77-2.26-.51-.42-1.35-.63-2.5-.63v-.93c1.62-.06,3.19-.17,4.73-.33,1.54-.16,2.88-.39,4.03-.7v29.68Z"/><path class="cls-1" d="M123.09,65.97l-.05-.06s.03-.1.17-.24c.72-.69,1.41-1.57,2.17-2.76.19-.31.37-.63.54-.97.13-.24.13-.44,0-.69-.18-.34-.32-.67-.43-.97-.45-1.18-.65-2.4-.65-2.88,0-.08.03-.18.11-.18.08,0,.12.07.2.28.32,1,.66,1.78,1.11,2.55.08.11.17.17.26.17.11,0,.2-.08.25-.23.4-1.17.72-2.44.97-3.89.03-.17,0-.31-.08-.41-.07-.08-.19-.13-.33-.13h-.69c-.25,0-.41.13-.5.4-.23.55-.5.85-1.26.85-.55,0-.76-.36-.76-.59,0-.15.07-.37.18-.72l.15-.5c.44-1.44.9-3.33,1.24-5.06.04-.18.01-.32-.07-.42-.07-.09-.18-.14-.33-.14-.5.02-1.08.06-1.32.08l-.18.02c-.07,0-.11-.03-.18-.13l-.37-.47c-.08-.08-.08-.13-.08-.15h0s.09-.06.09-.06h.11c.63.04,1.39.08,2.1.1.28,0,.44-.08.58-.3l.29-.43c.14-.22.3-.34.46-.34.13,0,.41.16.71.42.41.33,1.01.91,1.01,1.12,0,.18-.11.24-.32.36-.35.19-.54.3-.71,1-.15.57-.32,1.3-.51,2.13l-.16.69-.26.99c-.05.18-.03.32.04.42.07.09.18.13.33.13h.47c.23,0,.39-.1.56-.33.31-.43.52-.62.68-.62.25,0,1.57,1.04,1.57,1.41,0,.08-.01.17-.19.3-.31.24-.38.3-.48.75-.28,1.4-.69,3.06-1.6,4.76-.15.28-.11.53.11.68,1.55,1.08,3.53,1.29,6.21,1.29,1.37,0,4.71-.28,5.93-.6.12-.03.2-.04.26-.04.08,0,.11.03.11.08,0,.07-.04.11-.12.17-.83.69-1.09,1.52-1.22,2.17-.08.42-.5.42-.83.42h-.58c-1.9,0-3.75-.02-5.62-.27-2.05-.3-3.4-.58-4.91-2.02-.1-.1-.2-.15-.29-.15-.12,0-.23.07-.33.21-.13.17-.26.33-.41.49-.6.71-1.92,1.76-2.92,2.19-.15.06-.21.06-.23.06h-.01ZM133.18,62.92c-.48,0-.7-.2-.7-.63,0-.08,0-.23.02-.46l.05-.8c0-.18-.03-.31-.11-.4-.07-.08-.18-.12-.32-.12-1.83,0-2.21,0-2.54.08-.06.01-.13.02-.21.02-.06,0-.1-.05-.18-.15l-.35-.45c-.07-.08-.08-.12-.08-.13h0s.07-.08.07-.08c1.11.11,2.41.14,3.28.14.31,0,.47-.16.47-.5l.02-.93c0-.3-.16-.46-.47-.46-.72,0-1.29.02-1.48.06-.12.02-.25.04-.3.04-.06,0-.11-.03-.18-.13l-.35-.47c-.08-.08-.08-.13-.08-.15l.2-.06s2.19.12,2.19.12c.3,0,.46-.2.46-.5v-1.03c0-.31-.15-.48-.42-.48h-.29c-.36.03-.69.05-.87.07l-.26.02c-.05,0-.11-.05-.18-.15l-.35-.45c-.07-.07-.08-.12-.08-.13h0s.07-.08.07-.08h.11c.65.06,1.25.1,1.82.12h0c.3,0,.45-.17.45-.48v-.97c0-.32-.16-.5-.45-.5h-.98c-1.79,0-2.22.02-2.54.08-.09.02-.17.02-.21.02-.05,0-.09-.05-.16-.15l-.37-.45c-.05-.06-.08-.1-.08-.13h0s.09-.08.09-.08c.9.12,2.49.14,3.36.14h.89c.29,0,.45-.18.45-.5v-.88c0-.33-.16-.5-.47-.5-.5,0-1.84,0-2.39.08-.13.02-.21.02-.23.02h0c-.06,0-.11-.03-.18-.13l-.35-.45c-.09-.11-.09-.15-.09-.17h0s.09-.06.09-.06h.11c.85.1,2.17.14,3.1.14.27,0,.41-.18.41-.5v-.2c0-.86-.07-1.17-.3-1.66-.05-.11-.03-.21.01-.27.03-.05.08-.08.13-.08.19,0,.65.1,1.19.23.6.15,1.42.35,1.42.65,0,.06-.07.16-.21.3l-.09.1c-.22.23-.3.31-.33.43-.01.04-.03.15-.05.49,0,.34.16.52.45.52h.76c.25,0,.43-.09.58-.3.36-.5.52-.67.68-.67.37,0,1.65,1.07,1.65,1.37,0,.11-.07.18-.25.32-.29.24-.37.35-.37.65v.51c0,.16.06.26.16.26.06,0,.12-.04.17-.11l.13-.2c.23-.36.36-.57.55-.57.29,0,1.22,1.15,1.22,1.42,0,.31-.29.32-1.02.32h-.76c-.29,0-.45.18-.45.5v1.42c0,.81-.35,1.17-1.14,1.17-.24,0-.43-.03-.55-.19-.13-.2-.23-.36-.49-.36h-.85c-.14,0-.25.04-.32.12-.08.09-.12.22-.11.38v1.05c.02.33.18.5.47.5h.69c.57,0,.68-.04.9-.36.42-.63.56-.81.72-.81.3,0,1.52,1.09,1.52,1.46,0,.27-.32.28-1,.28h-2.82c-.14,0-.25.04-.32.12-.08.09-.12.22-.11.38v.89c.02.32.18.5.47.5h1.95c.6,0,.64-.02,1.01-.55.32-.45.52-.73.72-.73.32,0,1.76,1.33,1.76,1.54,0,.3-.38.3-1.02.3h-4.42c-.14,0-.25.04-.32.12-.08.09-.12.22-.11.4v1.05c0,.48-.8.84-1.31.84ZM134.83,52.92c-.2,0-.45.06-.45.35v1.11c.02.32.18.5.47.5h.82c.29,0,.45-.18.45-.5v-.97c0-.32-.16-.5-.45-.5h-.83ZM134.83,50.47c-.29,0-.45.18-.45.5v.88c0,.32.16.5.45.5h.83c.29,0,.45-.18.45-.5v-.88c0-.32-.16-.5-.45-.5h-.83Z"/><path class="cls-1" d="M168.86,66.11c-.46,0-.7-.27-.7-.78,0-.06,0-.1.02-.33.1-1.18.11-2.15.11-2.61,0-.37-.06-.54-.18-.54-.08,0-.2.07-.36.23-1.57,1.35-3.14,2.28-5.11,2.99-.82.3-1.73.49-1.97.49h-.01l-.07-.08c0-.07.07-.11.26-.22,1.73-.95,4.23-2.76,5.94-4.67.17-.2.23-.36.18-.47-.05-.1-.19-.15-.43-.15h-2.43c-.54,0-1.97,0-2.54.08-.13.02-.15.02-.2.02h0c-.08,0-.12-.05-.18-.13l-.35-.47c-.08-.11-.08-.13-.08-.15l.13-.06c.77.08,2.41.15,3.3.15h3.65c.29,0,.45-.18.45-.5l-.05-.78c-.03-.2-.13-.32-.29-.32-.08,0-.17.03-.26.08-.3.17-.6.31-.86.43-.46.21-.71.29-.77.29h-.01l-.05-.08s.04-.08.16-.17c.79-.63,1.35-1.19,1.7-1.69.67-.95.93-1.92.93-3.45,0-.1-.02-.43-.04-.64-.04-.27-.13-.42-.26-.42-.05,0-.1.02-.15.06-.1.08-.17.11-.21.11-.05-.08-.04-.11.1-.33.78-1.22,1.56-3.36,1.63-4.48.02-.27.03-.39.24-.39s2.22.5,2.22.84c0,.14-.11.23-.23.33-.26.21-.33.26-.48.47-.12.16-.16.28-.12.37.04.08.17.13.37.13h2.39c.54,0,.64-.06.91-.55.38-.67.51-.73.63-.73.23,0,1.46,1.25,1.46,1.58,0,.26-.14.26-1.02.26h-2.73c-.13,0-.21.04-.23.11-.02.07.05.16.18.21.71.35,1.05.62,1.05,1.18,0,.46-.44,1-1,1-.38,0-.67-.25-.77-.67-.15-.62-.29-1.16-.48-1.52-.1-.22-.27-.32-.52-.32h-.6c-.24,0-.4.08-.56.28-.44.51-.92.99-1.21,1.26-.18.16-.27.29-.25.4.01.1.1.18.28.27l.21.11c.23.12.42.22.62.34.18.1.4.2.64.2h1.08c.23,0,.39-.09.58-.32.13-.17.19-.21.29-.21.2,0,1.81.82,1.81,1.14,0,.15-.15.28-.32.4-.18.14-.25.2-.25.42v.68c0,.91.06,1,.38,1.1.12.04.28.06.47.06.14,0,.27,0,.4-.02.65-.04,1.01-.8,1.4-2.09.06-.19.08-.2.13-.2s.07.07.09.32c.06.71.13,1.42.29,1.76l.09.17c.11.19.23.41.23.6,0,.48-.52.82-1.01.98-.44.14-.87.21-1.41.21-2.51,0-2.71-.65-2.71-1.56v-2.39c0-.32-.16-.5-.45-.5h-1c-.29,0-.45.17-.45.48l-.02.31c-.04.38.08.48.36.63.62.3,1.32.73,1.32,1.41s-.48,1.11-.91,1.11-.63-.29-.64-.96c0-.18-.02-.35-.04-.51-.05-.35-.12-.52-.21-.52-.11,0-.27.28-.38.48-.24.43-.54.83-.89,1.18-.15.15-.22.27-.19.37.02.09.13.17.32.22.29.09.83.26.99.35.19.1.29.2.29.3s-.02.19-.23.4c-.15.15-.22.23-.26.38-.04.14-.02.26.05.35.08.11.22.17.38.17h4.1c.49,0,.57-.06.83-.43.55-.77.68-.89.85-.89.3,0,1.65,1.37,1.65,1.58,0,.29-.34.3-1,.3h-5.97c-.26,0-.42.05-.47.15-.04.1.04.26.23.46.95.94,2.27,1.7,4.04,2.32.88.32,1.9.5,2.59.6.41.06.48.08.48.16,0,.05-.04.09-.25.22-.46.27-1.08.82-1.42,1.52-.09.18-.21.28-.35.28-.35,0-1.5-.66-1.77-.83-1.35-.82-2.49-1.98-3.51-3.52-.19-.29-.3-.35-.35-.35-.09,0-.14.16-.14.44,0,.65,0,2.24.07,2.84.04.35.07.76.07.86,0,.56-.53.98-1.24.98ZM162.34,58.5c-.33,0-.92-2.14-.92-2.28s.07-.16.14-.16.26.02.39.04c.39.06.89.12,1.04.12.22,0,.49-.01.78-.03h.24c.28-.03.43-.21.43-.53v-1.52c0-.31-.15-.48-.42-.48-.42.02-.79.04-1.01.06-.22.02-.31.02-.35.02h0c-.06,0-.1-.03-.18-.13l-.34-.43c-.11-.15-.11-.17-.11-.19h0s.09-.06.09-.06c.62.06,2.41.14,2.95.14h1.04c.52,0,.62-.09.84-.39.2-.27.4-.52.51-.52.28,0,1.13.94,1.13,1.17,0,.29-.31.3-1,.3h-.89c-.29,0-.45.18-.45.5v1.26c0,.32.11.47.35.47.04,0,.09,0,.14-.01.48-.06.91-.1.99-.1.06,0,.12,0,.12.06,0,.05-.04.1-.16.16-.97.53-2.45,1.13-3.76,1.66l-.49.2c-.35.14-.44.2-.68.43-.19.18-.32.25-.42.25ZM160.73,53.04l-.04-.06s.04-.11.13-.23c.7-.95,1.75-2.65,2.37-4.13.17-.38.28-.76.35-1.17.08-.37.12-.4.2-.4.13,0,.6.14,1.41.41.64.21.83.28.83.49,0,.15-.08.26-.23.34-.24.12-.35.19-.61.55-.12.16-.15.28-.11.36.04.09.17.13.38.13h1.02c.41,0,.52-.09.79-.47.38-.52.45-.58.58-.58.26,0,1.22,1.05,1.22,1.33,0,.26-.11.28-.85.28h-1.8c-.12,0-.21.04-.23.1-.02.06.03.15.12.22.17.12.32.25.45.37.37.36.43.56.43.85,0,.54-.5,1.17-1.15,1.17-.17,0-.32-.05-.42-.16-.16-.17-.24-.46-.23-.9.02-.5.04-.88-.05-1.25-.09-.33-.33-.4-.52-.4h-.13c-.23,0-.4.08-.56.26-1.31,1.53-2.65,2.47-3.16,2.8-.09.06-.17.08-.19.08h-.01Z"/><path class="cls-1" d="M199.46,66.17c-.51,0-.57-.37-.57-.7,0-.12,0-.31.01-.58.02-.54.04-1.36.04-2.41,0-1.28-.02-1.91-.08-2.69,0-.12-.03-.32-.04-.53-.02-.27-.05-.55-.05-.61,0-.06.01-.14.09-.14.06,0,.31.11.47.19.14.07.33.15.53.24.2.08.41.17.62.27.2.1.37.14.57.14h1.19c.24,0,.4-.09.56-.3.15-.2.5-.67.64-.67.32,0,1.39.94,1.39,1.23,0,.08-.02.15-.12.28-.18.24-.29.41-.29.61,0,.43.02,1.11.04,1.79.02.69.05,1.39.05,1.83,0,.57-.66.96-1.26.96-.49,0-.59-.23-.59-.57,0-.28-.16-.44-.45-.44h-.93c-.29,0-.45.14-.45.42,0,.7-.02.89-.21,1.14-.19.27-.76.52-1.18.52ZM201.21,59.94c-.29,0-.45.18-.45.5v2.59c0,.32.16.5.45.5h1.06c.29,0,.45-.18.45-.5v-2.59c0-.32-.16-.5-.45-.5h-1.06ZM204.16,66.05c-.07,0-.11-.03-.11-.08s.04-.09.14-.16c.91-.6,1.85-1.4,2.8-2.38.4-.4.77-.84,1.08-1.21.16-.22.18-.44.07-.71-.55-1.12-.9-2.45-1.09-4.16-.03-.33-.15-.47-.4-.47-.03,0-.07,0-.11,0-.35.04-.48.04-.54.04h0c-.08,0-.12-.05-.18-.13l-.35-.46c-.08-.12-.09-.15-.09-.17h0s.09-.06.09-.06c1.03.1,2.09.14,3.36.14h1.87c.22,0,.38-.06.58-.22.74-.58.88-.62.97-.62.31,0,1.46,1.5,1.46,1.78,0,.14-.05.2-.23.26-.37.12-.5.16-.59.24-.12.12-.26.42-.52.99l-.05.1c-.48,1.02-1.03,1.94-1.62,2.76-.11.14-.15.28-.13.4.02.11.08.21.2.3.48.36.99.66,1.46.86.99.47,1.99.76,2.6.86.32.06.38.08.38.16,0,.07-.04.09-.34.2-1.02.35-1.46.97-1.79,1.52-.03.05-.09.13-.16.13-.27,0-1.63-.69-2.85-1.84-.19-.19-.37-.37-.54-.56-.11-.12-.22-.18-.33-.18-.1,0-.2.05-.31.14-.42.4-.92.78-1.56,1.2-.84.53-2.7,1.3-3.16,1.3ZM207.95,56.83c-.18,0-.3.04-.36.13-.07.09-.08.24-.03.43.27,1.05.65,1.92,1.26,2.81.12.17.23.25.34.25h0c.11,0,.22-.09.34-.27.6-1.02,1.05-1.93,1.35-2.77.07-.2.08-.35,0-.45-.06-.09-.18-.13-.36-.13h-2.54ZM199.35,57.16c-.08,0-.12,0-.18-.11l-.22-.39c-.06-.1-.08-.15-.08-.19h0s.07-.08.07-.08c.71.1,1.54.12,1.72.12h1.17c.38,0,.5-.03.66-.28.38-.6.61-.87.77-.87.21,0,1.52,1.21,1.52,1.5,0,.22-.21.22-.31.22h-3.76c-.23,0-.51.02-.76.04l-.6.04ZM204.94,55.45l-.05-.06s.02-.09.15-.24c.55-.61.94-1.36,1.2-2.3.19-.7.28-1.48.28-2.4,0-.83-.02-1.71-.15-2.51l-.03-.19c-.02-.14-.05-.29-.05-.33,0-.07.05-.12.09-.12.12,0,1.02.37,1.68.68.22.09.38.12.57.12h.74c.22,0,.4-.09.56-.26.35-.37.82-.81.96-.81.31,0,1.35,1.2,1.35,1.46,0,.15-.16.25-.4.36-.24.1-.31.22-.31,2.21v.21c0,1.38.03,1.73.71,1.73h.26c.44,0,.61-.12.75-.52.11-.32.23-.83.39-1.58.06-.29.08-.38.14-.38.06,0,.08.11.12.35l.03.17c.12.75.21,1.26.28,1.46.04.13.09.19.16.3l.06.09s.06.08.1.13c.1.12.22.25.22.46,0,.25-.15.76-.69,1.08-.36.21-.96.31-1.79.31-1.67,0-2.48-.08-2.48-1.97v-3.73c0-.32-.16-.5-.45-.5h-.54c-.29,0-.45.18-.45.5-.02,2.23-.11,3.67-1.34,4.99-.7.75-1.75,1.28-2.05,1.28h-.01ZM199.32,54.63c-.08,0-.1,0-.16-.11l-.26-.47c-.04-.07-.06-.11-.06-.15h0s.09-.06.09-.06c.4.06,1.31.12,1.72.12h1.25c.36,0,.49-.02.73-.34.38-.54.61-.81.77-.81.29,0,1.46,1.17,1.46,1.46,0,.26-.23.26-.36.26h-3.81c-.26,0-.98.04-1.21.08-.11.02-.13.02-.17.02h0ZM198.41,51.83c-.1,0-.16-.06-.22-.15l-.22-.35c-.12-.17-.13-.19-.13-.23h0s.09-.06.09-.06c.22.04,1.42.12,1.72.12h2.78c.44,0,.47-.04.77-.51.3-.49.53-.73.7-.73.3,0,1.55,1.23,1.55,1.54,0,.26-.2.26-.39.26h-5.29c-.34,0-.84.02-1.09.06-.2.04-.22.04-.28.04h0ZM199.35,49.03c-.06,0-.1-.04-.14-.13l-.24-.45c-.04-.06-.06-.11-.06-.15h0s.09-.08.09-.08c.32.08,1.25.16,1.71.16h1.15c.38,0,.49-.01.71-.34.38-.55.64-.81.81-.81.27,0,1.54,1.12,1.54,1.46,0,.26-.25.26-.44.26h-3.71c-.29,0-.96,0-1.22.06-.11.02-.15.02-.19.02h0Z"/><path class="cls-1" d="M237.24,66.17c-.48,0-.67-.23-.67-.82l.02-2.86c0-.64-.03-2.64-.11-3.31l-.06-.58c0-.06,0-.14.09-.14.19,0,1.03.39,1.75.76.2.1.36.14.57.14h1.45c.23,0,.39-.09.56-.33.23-.31.4-.46.53-.46.31,0,1.87,1.04,1.87,1.33,0,.13-.1.24-.36.48-.22.21-.31.29-.31,1.66l.05,2.1c.02.23.02.62.02.8,0,.66-.63,1-1.26,1-.5,0-.68-.35-.68-.67v-.74c0-.32-.16-.5-.45-.5h-1.34c-.29,0-.45.18-.45.5v.47c0,.85-.67,1.15-1.24,1.15ZM238.85,59.94c-.29,0-.45.18-.45.5v2.55c0,.32.16.5.45.5h1.43c.29,0,.45-.18.45-.5v-2.55c0-.32-.16-.5-.45-.5h-1.43ZM247.5,66.13c-.46,0-.79-.29-.79-.7,0-.5.01-1.26.03-2.12.02-1.09.04-2.33.04-3.36v-4.49c0-.32-.16-.5-.45-.5h-1.43c-.73,0-.79,0-1.13.06-.21.04-.22.04-.28.04-.05,0-.07-.03-.12-.13l-.26-.45c-.04-.07-.06-.13-.06-.17l.11-.06c.36.06,1.23.15,1.71.15h1.47c.29,0,.45-.18.45-.5v-2.61c0-.57-.08-2.88-.13-3.37-.03-.23-.05-.4-.05-.46,0-.14.09-.24.2-.24.47,0,2.76.51,2.76.88,0,.16-.21.35-.43.54-.21.2-.35.35-.35.77v4.49c0,.3.17.48.44.48.26-.02.42-.17.61-.51.44-.8.59-1,.77-1,.34,0,2,1.54,2,1.85,0,.22-.26.24-.53.24h-2.84c-.29,0-.45.18-.45.5v4.5c0,1.06.01,2.17.02,3.09,0,.65.01,1.21.01,1.58,0,1.09-.68,1.48-1.31,1.48ZM236.59,57.18s-.07-.03-.2-.23l-.24-.35c-.04-.07-.06-.11-.06-.13,0-.07.05-.1.09-.1.4.08,1.22.15,1.72.15h1.97c.39,0,.58-.02.82-.47.34-.66.53-.79.7-.79.33,0,1.61,1.3,1.61,1.64,0,.18-.28.18-.54.18h-4.34c-.6,0-.98.02-1.22.06-.26.04-.28.04-.32.04h0ZM236.5,54.63s-.04,0-.12-.13l-.33-.45c-.04-.07-.06-.11-.06-.15l.11-.06c.62.08,1.18.12,1.71.12h2.23c.38,0,.53-.05.73-.34.35-.54.56-.75.77-.75.38,0,1.29,1.14,1.29,1.41,0,.24-.24.24-.4.24h-4.51c-.44,0-.81.02-1.19.08-.13.02-.19.02-.22.02h0ZM235.7,51.83s-.05,0-.14-.15l-.26-.39c-.06-.08-.08-.13-.08-.17h0s.09-.08.09-.08c.24.04,1.13.12,1.72.12h3.41c.3,0,.6,0,.84-.42.28-.52.53-.87.79-.87.38,0,1.85,1.27,1.85,1.6,0,.26-.22.26-.51.26h-6.31c-.36,0-.95.02-1.13.06-.2.04-.22.04-.28.04h0ZM236.96,48.99c-.07,0-.11-.03-.16-.13l-.28-.45c-.04-.07-.06-.11-.06-.15h0s.09-.06.09-.06c.23.04,1.13.14,1.61.14h1.43c.44,0,.5-.02.97-.75.24-.37.43-.54.59-.54.32,0,1.57,1.27,1.57,1.6,0,.26-.36.26-.54.26h-3.84c-.41,0-.83.02-1.04.04l-.13.02c-.1.01-.19.03-.23.03Z"/><path class="cls-1" d="M280.04,66.09c-.19,0-.31-.11-.4-.36-.25-.69-.99-1.36-1.9-1.7-.43-.17-.53-.21-.53-.36,0-.1.1-.1.16-.1.08,0,.5.03.93.07.46.04.92.08,1.02.08.85,0,1-.04,1.02-1.16,0-.35-.16-.54-.45-.54h-1.85c-.48,0-2.04.02-2.54.08l-.19.02c-.09,0-.11-.03-.18-.13l-.37-.47c-.08-.08-.08-.13-.08-.15h0s.09-.06.09-.06c.91.1,2.37.14,3.36.14h1.76c.29,0,.45-.18.45-.5v-.74c0-.32-.16-.5-.45-.5h-3.93c-.62,0-2.11.02-2.47.08-.1.02-.21.04-.26.04-.04,0-.08-.02-.18-.15l-.35-.45c-.06-.07-.1-.12-.1-.15h0s.09-.08.09-.08c.66.11,2.54.15,3.36.15h3.84c.29,0,.45-.18.45-.5v-.7c0-.32-.16-.5-.45-.5h-2.36c-.6,0-2.16.02-2.48.08l-.24.04c-.08,0-.14-.06-.2-.15l-.35-.47c-.05-.06-.08-.1-.08-.13h0s.09-.08.09-.08c.95.13,2.17.14,3.36.14h2.26c.29,0,.45-.18.45-.5v-.64c0-.32-.16-.5-.45-.5h-1.71c-.36,0-.41.23-.46.46-.15.54-.9.67-1.29.67-.59,0-.67-.35-.67-.65,0-.14,0-.36.02-.63.02-.42.04-.94.04-1.44,0-.59-.01-1.43-.13-1.95-.04-.19-.04-.25-.04-.29,0-.13.05-.18.18-.18.38,0,1.48.62,1.94.89.2.12.35.16.58.16h1.52c.29,0,.45-.18.45-.5v-.74c0-.32-.16-.5-.45-.5h-3.45c-.55,0-2.17.02-2.54.08l-.19.02c-.08,0-.12-.04-.18-.13l-.37-.47s-.08-.1-.08-.15h0s.09-.06.09-.06c.89.08,2.46.14,3.36.14h3.36c.29,0,.45-.18.45-.52-.02-.79-.07-1.22-.11-1.54-.02-.19-.04-.39-.04-.5,0-.26.2-.28.25-.28.2,0,2.35.61,2.35,1.06,0,.11-.07.25-.21.42l-.06.09c-.12.16-.24.31-.29.73-.03.16,0,.3.09.4.08.09.2.14.34.14h3.19c.57,0,.64-.1.99-.59.44-.64.52-.73.72-.73.32,0,1.98,1.33,1.98,1.58,0,.3-.36.3-1.01.3h-5.88c-.29,0-.45.18-.45.5v.74c0,.32.16.5.45.5h1.63c.25,0,.43-.09.58-.3.44-.57.56-.69.74-.69.22,0,1.65,1,1.65,1.31,0,.12-.08.25-.25.4-.23.23-.33.34-.33.58v1.67c0,.53-.7.86-1.18.86-.56,0-.7-.15-.74-.4-.04-.32-.18-.46-.45-.46h-1.65c-.29,0-.45.18-.45.5v.64c0,.32.16.5.45.5h2.26c.22,0,.4-.08.57-.24.14-.13.61-.54.81-.54.3,0,1.57.87,1.57,1.15,0,.14-.12.29-.21.39-.23.25-.32.37-.32.56v.41c0,.18.07.24.14.24.04,0,.08-.03.12-.07l.24-.35c.22-.34.32-.46.47-.46.27,0,1.65,1.1,1.65,1.5,0,.24-.29.24-.7.24h-1.47c-.29,0-.45.18-.45.5v.19c0,.31.04,1.52.05,1.89,0,.72-.52,1.17-1.35,1.17-.55,0-.68-.38-.72-.94-.02-.36-.16-.5-.47-.5h-2.19c-.29,0-.45.18-.45.5,0,.36.01.74.03,1.14v.17s0,.29,0,.29c0,.43,0,.75-.34,1.18-.39.52-1.49.79-1.87.79ZM282.66,59.71c-.29,0-.45.18-.45.5v.74c0,.32.16.5.45.5h2.32c.29,0,.45-.18.45-.5v-.74c0-.32-.16-.5-.45-.5h-2.32ZM282.66,57.45c-.29,0-.45.18-.45.5v.7c0,.32.16.5.45.5h2.32c.29,0,.45-.18.45-.5v-.7c0-.32-.16-.5-.45-.5h-2.32ZM282.66,52.84c-.29,0-.45.18-.45.5v.84c0,.32.16.5.45.5h1.67c.29,0,.45-.18.45-.5v-.84c0-.32-.16-.5-.45-.5h-1.67ZM278.19,52.84c-.29,0-.45.18-.45.5v.84c0,.32.16.5.45.5h1.71c.29,0,.45-.18.45-.5v-.84c0-.32-.16-.5-.45-.5h-1.71Z"/><path class="cls-1" d="M322.81,66.09c-.3,0-.45-.13-.59-.54-.22-.64-.63-1.23-.94-1.58-.11-.12-.15-.19-.15-.24,0-.06.03-.1.09-.1.04,0,.1.02.17.05l.11.04c.38.12,1.05.33,1.39.33.22,0,.4-.04.57-.22.58-.65.7-3.09.72-3.82,0-.16-.03-.3-.11-.38-.08-.08-.18-.12-.32-.12h-.85c-.26,0-.44.15-.51.42-.41,1.45-1.07,3.12-2.81,4.47-1.16.91-2.58,1.4-2.98,1.4-.08,0-.13-.03-.13-.08,0-.07.03-.1.19-.22.73-.54,1.37-1.15,1.91-1.81.48-.57.88-1.17,1.22-1.81.31-.57.55-1.17.76-1.87.05-.16.03-.3-.04-.39-.06-.08-.17-.13-.3-.13h-.2c-.55.03-1.07.05-1.28.08-.26.04-.3.04-.34.04h0s-.08-.02-.18-.15l-.35-.47s-.07-.11-.07-.13h0s.07-.08.07-.08c.55.06,1.73.12,2.54.14.28,0,.45-.17.49-.46.05-.33.07-.7.07-1.09,0-.17-.06-.43-.13-.61-.07-.16-.15-.33-.35-.33-.07,0-.15.02-.25.07-.68.32-1.43.55-2.34.72-.32.06-.5.08-.56.08-.07,0-.11-.04-.11-.1,0-.05.03-.08.21-.18,1.38-.76,2.56-1.53,3.78-2.8.19-.21.21-.43.06-.7-.35-.59-.62-1.15-.88-1.81-.07-.17-.16-.25-.27-.25-.09,0-.18.05-.28.16-.65.7-1.34,1.23-1.69,1.48-.16.11-.23.15-.29.15-.06,0-.11-.05-.11-.12,0-.05.02-.09.15-.28.74-1.05,2.24-4.1,2.24-5.14,0-.08-.02-.18-.04-.27-.02-.08-.03-.15-.03-.2,0-.12.07-.2.18-.2.14,0,1.69.54,2.31.89.16.09.2.18.2.24,0,.19-.04.26-.25.36-.31.16-.63.43-1.22,1.25-.1.14-.13.28-.08.37.04.08.14.12.28.12h2.17c.89,0,.94-.02,1.16-.48.32-.67.45-.87.64-.87.3,0,1.7,1.38,1.7,1.68,0,.24-.26.24-.55.24h-1.13c-.2,0-.33.04-.36.12-.03.08.02.19.16.33.29.28.34.38.34.48,0,.19-.14.26-.27.32-.42.2-.55.28-1.09.96l-.48.59c-.11.12-.16.24-.14.34.02.1.1.19.23.25,1.4.71,3.06,1.1,3.71,1.24.2.04.23.08.23.16,0,.09-.06.11-.21.17-.53.2-1.2.62-1.46,1.48-.04.12-.09.18-.18.18-.08,0-.23-.06-.42-.17-.86-.47-1.96-1.11-2.82-1.94-.11-.1-.22-.15-.32-.15-.1,0-.2.04-.31.13-.15.12-.28.23-.48.37-.15.11-.22.23-.2.32.02.09.11.16.27.21.48.14,1.09.34,1.49.56.15.08.21.15.21.24,0,.07-.03.14-.19.32-.18.2-.28.36-.31.51-.02.12-.05.22-.08.33l-.05.21c-.04.17-.02.31.05.4.06.08.16.12.29.12h.74c.23,0,.39-.09.56-.33.23-.35.45-.56.59-.56.3,0,1.68,1.02,1.68,1.33,0,.17-.06.26-.25.42-.28.25-.36.36-.42,1.18-.06,1-.29,3.4-1.12,4.27-.48.51-1.27.83-2.07.83ZM321.01,50.86c-.14,0-.26.06-.32.16-.06.1-.04.23.05.38.23.4.64.92,1.11,1.42.13.11.23.16.32.16h0c.09,0,.19-.06.29-.18.42-.55.63-.93.77-1.38.07-.18.07-.32,0-.42-.06-.09-.19-.14-.38-.14h-1.85ZM313.77,65.99c-.15,0-.31-.04-.39-.3-.21-.67-.75-1.02-1.75-1.45-.1-.04-.2-.09-.2-.18,0-.06.05-.1.13-.1.05,0,.28.02.56.04.38.03.85.07,1,.07.96,0,1.06-.23,1.06-1.14v-3.74c0-.25-.05-.4-.14-.4-.07,0-.17.08-.28.24-.37.54-.67.91-1,1.3-1.28,1.55-2.2,2.17-2.45,2.33-.17.1-.22.13-.29.13h-.01l-.05-.08s.03-.1.17-.29c.71-1.01,1.49-2.36,2.19-3.79.6-1.21,1.04-2.23,1.35-3.1.07-.21.08-.36,0-.46-.06-.08-.16-.12-.31-.12-.17,0-1.17.02-1.78.06l-.84.06c-.06,0-.1-.05-.18-.15l-.35-.47s-.08-.11-.08-.16l.15-.05c.91.13,2.62.14,3.32.14h2.6c.24,0,.42-.11.56-.34.29-.5.49-.79.62-.79.26,0,2.09,1.14,2.09,1.68s-.22.61-.74.63c-.65.04-.96.2-1.92,1.27-.29.32-.38.4-.46.4-.07,0-.11-.05-.11-.14,0-.08.08-.32.22-.72l.12-.35c.07-.19.12-.35.16-.52.05-.17.03-.32-.05-.42-.07-.09-.17-.13-.31-.13-.33,0-.48.18-.48.5v5.27l.02,2.65c0,.48-.06,1.37-.49,1.9-.31.41-1.05.73-1.68.73ZM314.92,54.26c-.48,0-.77-.22-.98-.77-.46-1.2-.72-1.62-1.65-2.65-.06-.06-.08-.11-.08-.16,0-.08.06-.09.14-.09.24,0,1.52.28,2.4.72.11.05.19.08.27.08.14,0,.25-.08.34-.25.25-.42.41-.78.61-1.19l.13-.28c.07-.16.08-.29.01-.38-.06-.09-.17-.13-.32-.13h-1.85c-.57,0-2.14.04-2.39.08-.05,0-.17.02-.24.03-.02,0-.04,0-.05,0-.1,0-.14-.03-.22-.14l-.35-.47c-.06-.06-.08-.13-.08-.15l.11-.06c.89.1,2.34.14,3.32.14h2c.25,0,.42-.12.55-.4.23-.53.35-.63.48-.63.36,0,2.11,1.42,2.11,1.82,0,.18-.16.3-.46.34-.57.08-.72.12-1.13.41l-.17.12c-.38.27-1.03.74-1.61,1.17-.26.21-.29.42-.12.7.17.3.24.57.24.93,0,.77-.52,1.19-1.01,1.19Z"/><path class="cls-1" d="M361.01,66.09c-.53,0-.63-.21-.63-.59,0-.1.01-.37.03-.74.04-.95.12-2.53.12-4.03v-5.31c0-.32-.16-.5-.45-.5h-.83c-.29,0-.45.18-.45.5-.03,1.05-.1,2.46-.39,3.98-.42,2.13-1.59,4.08-3.22,5.34-.43.33-.82.58-.92.58h-.01l-.07-.08s.02-.09.15-.28c.85-1.23,1.42-2.35,1.86-3.64.64-1.9.78-4.39.78-6.15,0-1.1-.13-4.34-.22-5.29l-.02-.21c-.02-.2-.03-.3-.03-.38,0-.12.04-.18.13-.18.14,0,.89.26,1.23.39.18.07.32.1.46.1.16,0,.3-.04.48-.14.14-.07.38-.21.61-.39.49-.35,1.25-.99,1.91-1.73.17-.19.22-.25.31-.25.06,0,.13.04.42.21l1.76,1.09c.27.17.32.26.32.36,0,.14-.17.25-.53.32l-.25.05c-.22.04-.46.09-.77.18-.7.2-2.07.44-3.54.7-.28.06-.42.25-.42.54v3.31c0,.32.16.5.45.5h2.36c.66,0,.75-.13,1.08-.83.27-.57.41-.77.62-.77.33,0,2.11,1.57,2.11,1.87s-.41.3-1.02.3h-1.5c-.29,0-.45.18-.45.5v5.1c0,.61.02,1.47.03,2.31.01.78.03,1.54.03,2.04,0,.79-.89,1.23-1.5,1.23ZM347.91,65.93s-.09-.03-.09-.1c0-.04.02-.08.05-.15,1.14-2.52,1.69-5.95,1.69-10.51,0-1.34-.08-2.57-.24-3.87l-.02-.14c-.01-.06-.02-.11-.02-.15,0-.07.04-.14.13-.14.14,0,.75.32,1.86.99.2.12.36.16.59.16h1.11c.23,0,.39-.09.56-.32.37-.54.57-.75.71-.75.33,0,1.67,1.18,1.67,1.58,0,.12-.04.21-.15.34l-.1.11c-.08.08-.15.15-.17.22-.04.1-.04.2-.04.34v1.21c0,.31.01.81.03,1.34.01.6.03,1.24.03,1.69s-.05.76-.32,1.06c-.28.31-.62.46-1.07.46s-.65-.22-.68-.86c-.04-.36-.19-.52-.47-.52h-1.23c-.28,0-.45.17-.47.48-.33,3.2-1.14,5.16-2.99,7.21-.22.24-.31.31-.38.31ZM351.95,52.59c-.29,0-.45.18-.45.5,0,1.18-.01,2.55-.09,3.75,0,.18.03.31.11.4.07.08.18.12.32.12h1.21c.29,0,.45-.18.45-.5v-3.77c0-.32-.16-.5-.45-.5h-1.1ZM349.28,49.28c-.08,0-.1-.02-.2-.15l-.37-.47s-.08-.1-.08-.13h0s.09-.06.09-.06c.76.08,2.3.15,2.99.15h.96c.64,0,.69-.06.86-.34.51-.87.62-.96.75-.96.27,0,1.91,1.43,1.91,1.66,0,.18-.23.2-.72.2h-3.82c-.42,0-1.69.02-2.11.08l-.26.02Z"/></g></svg>