<svg xmlns="http://www.w3.org/2000/svg" viewBox="-10 -22 95 95">
  <path d="M62.45,47.09c-13.44,0-15.79-15.27-24.9-15.27s-11.45,15.27-24.9,15.27c-4.38,0-7.71-1.82-10.25-4.23-.08-.08-.18-.12-.29-.12H.46c-.25,0-.46.23-.46.51v7.17c0,.28.21.51.46.51h74.26c.25,0,.46-.23.46-.51v-7.17c0-.28-.21-.51-.46-.51h-1.73c-.11,0-.21.04-.29.12-2.55,2.41-5.87,4.23-10.25,4.23Z" fill="#251e1c"/>
  <path d="M75.18,1.28c0-.78-.7-1.38-1.47-1.26L.4,11.44C.17,11.47,0,11.69,0,11.94v7.24c0,.28.21.51.46.51h1.66c.11,0,.21-.04.29-.12,2.55-2.41,5.87-4.23,10.25-4.23,13.44,0,15.79,15.27,24.9,15.27s11.45-15.27,24.9-15.27c4.38,0,7.7,1.82,10.25,4.23.08.08.18.12.29.12h1.73c.25,0,.46-.23.46-.51V1.28Z" fill="#251e1c"/>
  <path d="M19.69,19.29c-.19-.21-.51-.2-.68.02-1.92,2.56-1.76,6.36.44,8.71,2.2,2.35,5.65,2.43,7.93.25.21-.2.2-.55,0-.75l-7.7-8.24Z" fill="#eac56c"/>
  <path d="M51.55,40.99c.54.48,1.11.91,1.69,1.32.08.05.17.08.26.08h17.79c.4-.29.82-.55,1.2-.88.16-.15.26-.34.38-.52h-21.32Z" fill="#251e1c"/>
  <path d="M55.75,43.77c1.58.74,3.32,1.22,5.25,1.4h3.13c1.75-.18,3.38-.66,4.9-1.4h-13.27Z" fill="#251e1c"/>
  <path d="M48.89,38.21c.39.48.78.96,1.2,1.4h23.25s.02-.06.02-.09v-1.31h-24.47Z" fill="#251e1c"/>
  <path d="M72.85,30.19c-.5-.08-.99-.07-1.57-.07-1.92,0-3.24.51-4.39,1.17h6.47v-.67c0-.15-.06-.27-.22-.34-.08-.03-.15-.07-.3-.09Z" fill="#251e1c"/>
  <path d="M64.89,32.67c-.08,0-.16.02-.23.07-.8.53-1.67,1.01-2.71,1.33h11.42v-1.4h-8.47Z" fill="#251e1c"/>
  <path d="M46.82,35.44c.32.48.65.94.99,1.4h25.55v-1.4h-26.54Z" fill="#251e1c"/>
  <path d="M55.72,34.07c-1.63-.36-3.09-.9-4.66-1.38-.04-.01-.09-.02-.13-.02h-5.84c.28.48.57.94.86,1.4h9.77Z" fill="#251e1c"/>
</svg>
