<svg preserveAspectRatio="none" width="100%" height="100%" overflow="visible" style="display: block;" viewBox="0 0 872 125" fill="none" xmlns="http://www.w3.org/2000/svg">
<g id="CONTACT">
<path id="Vector" d="M858.29 10.6079H830.218C829.892 26.2737 829.892 42.2658 829.892 58.258V67.07C829.892 82.7358 829.892 98.5648 830.218 114.231L848.661 116.189V122.39H794.802V116.189L813.244 114.231C813.571 98.728 813.571 83.0622 813.571 67.07V58.258C813.571 42.2658 813.571 26.2737 813.244 10.6079H785.172L780.276 34.5961H771.299L772.768 2.77496H870.858L872 34.5961H863.35L858.29 10.6079Z" fill="var(--fill-0, black)" fill-opacity="0.03"/>
<path id="Vector_2" d="M735.657 90.0784H745.449L745.123 116.351C734.025 122.389 722.11 125 709.38 125C673.31 125 648.666 99.7064 648.666 62.5001C648.666 25.9466 674.453 0.000101835 709.38 0.000101835C719.662 0.000101835 731.74 1.95833 743.491 8.81211L743.817 35.085H734.025L729.618 12.239C723.416 9.13849 717.377 7.833 711.338 7.833C686.694 7.833 667.108 26.9257 667.108 62.5001C667.108 98.2377 685.062 117.167 710.686 117.167C717.377 117.167 724.395 116.025 731.25 112.761L735.657 90.0784Z" fill="var(--fill-0, black)" fill-opacity="0.03"/>
<path id="Vector_3" d="M549.511 75.7179H586.397L567.791 20.2349L549.511 75.7179ZM616.101 114.556L630.137 116.188V122.389H581.5V116.188L599.127 114.067L588.682 82.7349H547.226L536.944 113.903L554.408 116.188V122.389H514.584V116.188L529.11 113.903L567.138 1.95816H577.583L616.101 114.556Z" fill="var(--fill-0, black)" fill-opacity="0.03"/>
<path id="Vector_4" d="M493.381 10.6079H465.309C464.982 26.2737 464.982 42.2658 464.982 58.258V67.07C464.982 82.7358 464.982 98.5648 465.309 114.231L483.751 116.189V122.39H429.892V116.189L448.335 114.231C448.661 98.728 448.661 83.0622 448.661 67.07V58.258C448.661 42.2658 448.661 26.2737 448.335 10.6079H420.263L415.366 34.5961H406.39L407.859 2.77496H505.948L507.091 34.5961H498.44L493.381 10.6079Z" fill="var(--fill-0, black)" fill-opacity="0.03"/>
<path id="Vector_5" d="M381.14 2.77496V8.976L366.125 11.0974L365.961 123.532H359.596L286.641 23.3363L286.967 113.741L306.063 116.189V122.39H263.792V116.189L278.807 114.067L279.133 12.8925L277.338 10.6079L264.608 8.976V2.77496H292.19L358.29 94.1588L357.964 11.2606L338.868 8.976V2.77496H381.14Z" fill="var(--fill-0, black)" fill-opacity="0.03"/>
<path id="Vector_6" d="M146.135 62.5001C146.135 90.7312 157.397 117.33 182.368 117.33C207.176 117.33 218.111 90.7312 218.111 62.5001C218.111 34.4322 207.176 7.833 182.368 7.833C157.397 7.833 146.135 34.4322 146.135 62.5001ZM182.368 0.000101835C210.114 0.000101835 236.717 22.1933 236.717 62.5001C236.717 101.828 210.44 125 182.368 125C154.132 125 127.692 103.133 127.692 62.5001C127.692 23.3356 154.296 0.000101835 182.368 0.000101835Z" fill="var(--fill-0, black)" fill-opacity="0.03"/>
<path id="Vector_7" d="M86.9912 90.0784H96.7838L96.4574 116.351C85.3591 122.389 73.4447 125 60.7143 125C24.6448 125 0 99.7064 0 62.5001C0 25.9466 25.7873 0.000101835 60.7143 0.000101835C70.9966 0.000101835 83.0742 1.95833 94.8253 8.81211L95.1517 35.085H85.3591L80.9524 12.239C74.7504 9.13849 68.7116 7.833 62.6728 7.833C38.0281 7.833 18.4428 26.9257 18.4428 62.5001C18.4428 98.2377 36.396 117.167 62.02 117.167C68.7116 117.167 75.7297 116.025 82.5845 112.761L86.9912 90.0784Z" fill="var(--fill-0, black)" fill-opacity="0.03"/>
</g>
</svg>
