<svg preserveAspectRatio="none" width="100%" height="100%" overflow="visible" style="display: block;" viewBox="0 0 25 25" fill="none" xmlns="http://www.w3.org/2000/svg">
<path id="Icon akar-instagram-fill" d="M7.34659 0.075C8.67954 0.0136363 9.10454 0 12.5 0C15.8955 0 16.3205 0.0147728 17.6523 0.075C18.9841 0.135227 19.8932 0.347727 20.6886 0.655682C21.5216 0.970455 22.2773 1.4625 22.9023 2.09886C23.5386 2.72273 24.0295 3.47727 24.3432 4.31136C24.6523 5.10682 24.8636 6.01591 24.925 7.34545C24.9864 8.68068 25 9.10568 25 12.5C25 15.8955 24.9852 16.3205 24.925 17.6534C24.8648 18.983 24.6523 19.892 24.3432 20.6875C24.0295 21.5217 23.5378 22.2775 22.9023 22.9023C22.2773 23.5386 21.5216 24.0295 20.6886 24.3432C19.8932 24.6523 18.9841 24.8636 17.6545 24.925C16.3205 24.9864 15.8954 25 12.5 25C9.10454 25 8.67954 24.9852 7.34659 24.925C6.01704 24.8648 5.10795 24.6523 4.3125 24.3432C3.47832 24.0295 2.72252 23.5378 2.09772 22.9023C1.46179 22.278 0.969674 21.5226 0.655679 20.6886C0.347724 19.8932 0.136361 18.9841 0.0749972 17.6545C0.0136363 16.3193 0 15.8943 0 12.5C0 9.10454 0.0147728 8.67954 0.075 7.34773C0.135227 6.01591 0.347727 5.10682 0.655682 4.31136C0.97014 3.47737 1.46264 2.72195 2.09886 2.09773C2.72277 1.46193 3.47781 0.96982 4.31137 0.65568C5.10682 0.347727 6.01705 0.136364 7.34659 0.075ZM17.5511 2.325C16.233 2.26477 15.8375 2.25227 12.5 2.25227C9.1625 2.25227 8.76705 2.26477 7.44886 2.325C6.22955 2.38068 5.56818 2.58409 5.12727 2.75568C4.54432 2.98296 4.12727 3.25227 3.68977 3.68977C3.27505 4.09324 2.95589 4.58441 2.75568 5.12727C2.58409 5.56818 2.38068 6.22955 2.325 7.44886C2.26477 8.76705 2.25227 9.1625 2.25227 12.5C2.25227 15.8375 2.26477 16.233 2.325 17.5511C2.38068 18.7705 2.58409 19.4318 2.75568 19.8727C2.95568 20.4148 3.275 20.9068 3.68977 21.3102C4.09318 21.725 4.58523 22.0443 5.12727 22.2443C5.56818 22.4159 6.22955 22.6193 7.44886 22.675C8.76705 22.7352 9.16136 22.7477 12.5 22.7477C15.8386 22.7477 16.233 22.7352 17.5511 22.675C18.7705 22.6193 19.4318 22.4159 19.8727 22.2443C20.4557 22.017 20.8727 21.7477 21.3102 21.3102C21.725 20.9068 22.0443 20.4148 22.2443 19.8727C22.4159 19.4318 22.6193 18.7705 22.675 17.5511C22.7352 16.233 22.7477 15.8375 22.7477 12.5C22.7477 9.1625 22.7352 8.76705 22.675 7.44887C22.6193 6.22955 22.4159 5.56818 22.2443 5.12727C22.017 4.54432 21.7477 4.12727 21.3102 3.68977C20.9067 3.27508 20.4156 2.95592 19.8727 2.75568C19.4318 2.58409 18.7705 2.38068 17.5511 2.325ZM10.9034 16.3534C12.7422 17.1189 14.8657 16.4768 15.9723 14.8207C17.0789 13.1647 16.8596 10.9572 15.4489 9.55114C14.256 8.35901 12.4626 8.00264 10.9045 8.64815C9.34653 9.29365 8.33062 10.814 8.33037 12.5004C8.33037 14.1875 9.34549 15.7077 10.9034 16.3534ZM7.95682 7.95682C10.4659 5.44769 14.5341 5.44769 17.0432 7.95682C19.5523 10.4659 19.5523 14.5341 17.0432 17.0432C14.5341 19.5523 10.4659 19.5523 7.95682 17.0432C5.44769 14.5341 5.44769 10.4659 7.95682 7.95682ZM20.35 7.03182C20.7525 6.6521 20.9168 6.08356 20.7788 5.54769C20.6407 5.01181 20.2223 4.59335 19.6864 4.45533C19.1505 4.31731 18.582 4.48156 18.2023 4.88409C17.6383 5.48192 17.652 6.41982 18.2331 7.00095C18.8143 7.58209 19.7522 7.59576 20.35 7.03182Z" fill="var(--fill-0, black)"/>
</svg>
